<?xml version="1.0" encoding="utf-8" standalone="no"?>
<!DOCTYPE svg PUBLIC "-//W3C//DTD SVG 1.1//EN"
  "http://www.w3.org/Graphics/SVG/1.1/DTD/svg11.dtd">
<!-- Created with matplotlib (http://matplotlib.org/) -->
<svg height="648pt" version="1.1" viewBox="0 0 864 648" width="864pt" xmlns="http://www.w3.org/2000/svg" xmlns:xlink="http://www.w3.org/1999/xlink">
 <defs>
  <style type="text/css">
*{stroke-linecap:butt;stroke-linejoin:round;}
  </style>
 </defs>
 <g id="figure_1">
  <g id="patch_1">
   <path d="M 0 648 
L 864 648 
L 864 0 
L 0 0 
z
" style="fill:#ffffff;"/>
  </g>
  <g id="axes_1">
   <g id="patch_2">
    <path d="M 108 567 
L 777.6 567 
L 777.6 77.76 
L 108 77.76 
z
" style="fill:#eaeaf2;"/>
   </g>
   <g id="matplotlib.axis_1">
    <g id="xtick_1">
     <g id="text_1">
      <!-- $0$ -->
      <defs>
       <path d="M 42 31.84375 
C 42 37.96875 41.90625 48.421875 37.703125 56.453125 
C 34 63.484375 28.09375 66 22.90625 66 
C 18.09375 66 12 63.78125 8.203125 56.5625 
C 4.203125 49.015625 3.796875 39.671875 3.796875 31.84375 
C 3.796875 26.109375 3.90625 17.375 7 9.734375 
C 11.296875 -0.609375 19 -2 22.90625 -2 
C 27.5 -2 34.5 -0.109375 38.59375 9.4375 
C 41.59375 16.375 42 24.5 42 31.84375 
z
M 22.90625 -0.40625 
C 16.5 -0.40625 12.703125 5.125 11.296875 12.75 
C 10.203125 18.6875 10.203125 27.328125 10.203125 32.953125 
C 10.203125 40.6875 10.203125 47.109375 11.5 53.234375 
C 13.40625 61.78125 19 64.390625 22.90625 64.390625 
C 27 64.390625 32.296875 61.671875 34.203125 53.4375 
C 35.5 47.71875 35.59375 40.984375 35.59375 32.953125 
C 35.59375 26.421875 35.59375 18.375 34.40625 12.453125 
C 32.296875 1.5 26.40625 -0.40625 22.90625 -0.40625 
z
" id="CMR17-48"/>
      </defs>
      <g style="fill:#262626;" transform="translate(135.69663 584.110347)scale(0.11 -0.11)">
       <use transform="scale(0.996264)" xlink:href="#CMR17-48"/>
      </g>
     </g>
    </g>
    <g id="xtick_2">
     <g id="text_2">
      <!-- $25$ -->
      <defs>
       <path d="M 41.703125 15.46875 
L 39.90625 15.46875 
C 38.90625 8.390625 38.09375 7.1875 37.703125 6.59375 
C 37.203125 5.796875 30 5.796875 28.59375 5.796875 
L 9.40625 5.796875 
C 13 9.6875 20 16.765625 28.5 24.9375 
C 34.59375 30.71875 41.703125 37.5 41.703125 47.390625 
C 41.703125 59.1875 32.296875 66 21.796875 66 
C 10.796875 66 4.09375 56.296875 4.09375 47.296875 
C 4.09375 43.390625 7 42.890625 8.203125 42.890625 
C 9.203125 42.890625 12.203125 43.484375 12.203125 46.984375 
C 12.203125 50.09375 9.59375 51 8.203125 51 
C 7.59375 51 7 50.890625 6.59375 50.6875 
C 8.5 59.1875 14.296875 63.390625 20.40625 63.390625 
C 29.09375 63.390625 34.796875 56.5 34.796875 47.390625 
C 34.796875 38.703125 29.703125 31.21875 24 24.734375 
L 4.09375 2.296875 
L 4.09375 0 
L 39.296875 0 
z
" id="CMR17-50"/>
       <path d="M 11.40625 58.59375 
C 12.40625 58.1875 16.5 56.890625 20.703125 56.890625 
C 30 56.890625 35.09375 61.890625 38 64.6875 
C 38 65.484375 38 66 37.40625 66 
C 37.296875 66 37.09375 66 36.296875 65.59375 
C 32.796875 64.09375 28.703125 63 23.703125 63 
C 20.703125 63 16.203125 63.359375 11.296875 65.484375 
C 10.203125 66 10 66 9.90625 66 
C 9.40625 66 9.296875 65.890625 9.296875 63.90625 
L 9.296875 34.859375 
C 9.296875 33.015625 9.296875 32.5 10.296875 32.5 
C 10.796875 32.5 11 32.703125 11.5 33.421875 
C 14.703125 38.046875 19.09375 40 24.09375 40 
C 27.59375 40 35.09375 37.734375 35.09375 20.203125 
C 35.09375 16.984375 35.09375 11.1875 32.09375 6.59375 
C 29.59375 2.484375 25.703125 0.390625 21.40625 0.390625 
C 14.796875 0.390625 8.09375 4.984375 6.296875 12.6875 
C 6.703125 12.59375 7.5 12.390625 7.90625 12.390625 
C 9.203125 12.390625 11.703125 13.09375 11.703125 16.1875 
C 11.703125 18.890625 9.796875 20 7.90625 20 
C 5.59375 20 4.09375 18.59375 4.09375 15.796875 
C 4.09375 7.09375 11 -2 21.59375 -2 
C 31.90625 -2 41.703125 6.890625 41.703125 19.796875 
C 41.703125 32.09375 33.90625 41.59375 24.203125 41.59375 
C 19.09375 41.59375 14.796875 39.6875 11.40625 36 
z
" id="CMR17-53"/>
      </defs>
      <g style="fill:#262626;" transform="translate(212.633241 584.110347)scale(0.11 -0.11)">
       <use transform="scale(0.996264)" xlink:href="#CMR17-50"/>
       <use transform="translate(45.690477 0)scale(0.996264)" xlink:href="#CMR17-53"/>
      </g>
     </g>
    </g>
    <g id="xtick_3">
     <g id="text_3">
      <!-- $50$ -->
      <g style="fill:#262626;" transform="translate(292.309586 584.110347)scale(0.11 -0.11)">
       <use transform="scale(0.996264)" xlink:href="#CMR17-53"/>
       <use transform="translate(45.690477 0)scale(0.996264)" xlink:href="#CMR17-48"/>
      </g>
     </g>
    </g>
    <g id="xtick_4">
     <g id="text_4">
      <!-- $75$ -->
      <defs>
       <path d="M 45.09375 61.796875 
L 45.09375 64 
L 21.59375 64 
C 9.90625 64 9.703125 65.09375 9.296875 67 
L 7.5 67 
L 4.59375 48.5 
L 6.40625 48.5 
C 6.703125 50.40625 7.40625 55.5 8.59375 57.390625 
C 9.203125 58.1875 16.59375 58.1875 18.296875 58.1875 
L 40.296875 58.1875 
L 29.203125 41.71875 
C 21.796875 30.640625 16.703125 15.671875 16.703125 2.59375 
C 16.703125 1.390625 16.703125 -2 20.296875 -2 
C 23.90625 -2 23.90625 1.390625 23.90625 2.6875 
L 23.90625 7.28125 
C 23.90625 23.65625 26.703125 34.4375 31.296875 41.3125 
z
" id="CMR17-55"/>
      </defs>
      <g style="fill:#262626;" transform="translate(371.98593 584.110347)scale(0.11 -0.11)">
       <use transform="scale(0.996264)" xlink:href="#CMR17-55"/>
       <use transform="translate(45.690477 0)scale(0.996264)" xlink:href="#CMR17-53"/>
      </g>
     </g>
    </g>
    <g id="xtick_5">
     <g id="text_5">
      <!-- $100$ -->
      <defs>
       <path d="M 26.59375 63.796875 
C 26.59375 65.890625 26.5 66 25.09375 66 
C 21.203125 61.359375 15.296875 59.890625 9.703125 59.6875 
C 9.40625 59.6875 8.90625 59.6875 8.796875 59.5 
C 8.703125 59.296875 8.703125 59.09375 8.703125 57 
C 11.796875 57 17 57.59375 21 59.984375 
L 21 7.296875 
C 21 3.796875 20.796875 2.59375 12.203125 2.59375 
L 9.203125 2.59375 
L 9.203125 0 
C 14 0.09375 19 0.1875 23.796875 0.1875 
C 28.59375 0.1875 33.59375 0.09375 38.40625 0 
L 38.40625 2.59375 
L 35.40625 2.59375 
C 26.796875 2.59375 26.59375 3.6875 26.59375 7.296875 
z
" id="CMR17-49"/>
      </defs>
      <g style="fill:#262626;" transform="translate(448.922541 584.110347)scale(0.11 -0.11)">
       <use transform="scale(0.996264)" xlink:href="#CMR17-49"/>
       <use transform="translate(45.690477 0)scale(0.996264)" xlink:href="#CMR17-48"/>
       <use transform="translate(91.380954 0)scale(0.996264)" xlink:href="#CMR17-48"/>
      </g>
     </g>
    </g>
    <g id="xtick_6">
     <g id="text_6">
      <!-- $125$ -->
      <g style="fill:#262626;" transform="translate(528.598886 584.110347)scale(0.11 -0.11)">
       <use transform="scale(0.996264)" xlink:href="#CMR17-49"/>
       <use transform="translate(45.690477 0)scale(0.996264)" xlink:href="#CMR17-50"/>
       <use transform="translate(91.380954 0)scale(0.996264)" xlink:href="#CMR17-53"/>
      </g>
     </g>
    </g>
    <g id="xtick_7">
     <g id="text_7">
      <!-- $150$ -->
      <g style="fill:#262626;" transform="translate(608.27523 584.110347)scale(0.11 -0.11)">
       <use transform="scale(0.996264)" xlink:href="#CMR17-49"/>
       <use transform="translate(45.690477 0)scale(0.996264)" xlink:href="#CMR17-53"/>
       <use transform="translate(91.380954 0)scale(0.996264)" xlink:href="#CMR17-48"/>
      </g>
     </g>
    </g>
    <g id="xtick_8">
     <g id="text_8">
      <!-- $175$ -->
      <g style="fill:#262626;" transform="translate(687.951575 584.110347)scale(0.11 -0.11)">
       <use transform="scale(0.996264)" xlink:href="#CMR17-49"/>
       <use transform="translate(45.690477 0)scale(0.996264)" xlink:href="#CMR17-55"/>
       <use transform="translate(91.380954 0)scale(0.996264)" xlink:href="#CMR17-53"/>
      </g>
     </g>
    </g>
    <g id="xtick_9">
     <g id="text_9">
      <!-- $200$ -->
      <g style="fill:#262626;" transform="translate(767.62792 584.110347)scale(0.11 -0.11)">
       <use transform="scale(0.996264)" xlink:href="#CMR17-50"/>
       <use transform="translate(45.690477 0)scale(0.996264)" xlink:href="#CMR17-48"/>
       <use transform="translate(91.380954 0)scale(0.996264)" xlink:href="#CMR17-48"/>
      </g>
     </g>
    </g>
   </g>
   <g id="matplotlib.axis_2">
    <g id="ytick_1">
     <g id="text_10">
      <!-- $10^{-22}$ -->
      <defs>
       <path d="M 65.90625 23 
C 67.59375 23 69.40625 23 69.40625 25 
C 69.40625 27 67.59375 27 65.90625 27 
L 11.796875 27 
C 10.09375 27 8.296875 27 8.296875 25 
C 8.296875 23 10.09375 23 11.796875 23 
z
" id="CMSY10-0"/>
      </defs>
      <g style="fill:#262626;" transform="translate(71.955073 524.259612)scale(0.11 -0.11)">
       <use transform="scale(0.996264)" xlink:href="#CMR17-49"/>
       <use transform="translate(45.690477 0)scale(0.996264)" xlink:href="#CMR17-48"/>
       <use transform="translate(91.380954 36.153639)scale(0.697382)" xlink:href="#CMSY10-0"/>
       <use transform="translate(145.621947 36.153639)scale(0.697382)" xlink:href="#CMR17-50"/>
       <use transform="translate(177.605129 36.153639)scale(0.697382)" xlink:href="#CMR17-50"/>
      </g>
     </g>
    </g>
    <g id="ytick_2">
     <g id="text_11">
      <!-- $10^{-19}$ -->
      <defs>
       <path d="M 35.203125 29.234375 
C 35.203125 7 26.09375 0.390625 18.59375 0.390625 
C 16.296875 0.390625 10.703125 0.671875 8.40625 4.390625 
C 11 4 12.90625 5.390625 12.90625 7.890625 
C 12.90625 10.59375 10.703125 11.5 9.296875 11.5 
C 8.40625 11.5 5.703125 11.09375 5.703125 7.6875 
C 5.703125 1.0625 11.59375 -2 18.796875 -2 
C 30.296875 -2 42 10.390625 42 32.65625 
C 42 60.265625 30.796875 66 23.203125 66 
C 13.296875 66 3.796875 57.25 3.796875 43.75 
C 3.796875 31.25 11.90625 22 22.09375 22 
C 30.5 22 34.203125 29.84375 35.203125 33.15625 
z
M 22.296875 23.59375 
C 19.59375 23.59375 15.796875 24.09375 12.703125 30.140625 
C 10.59375 34.078125 10.59375 38.703125 10.59375 43.640625 
C 10.59375 49.59375 10.59375 53.71875 13.40625 58.15625 
C 14.796875 60.265625 17.40625 63.6875 23.203125 63.6875 
C 35 63.6875 35 45.453125 35 41.421875 
C 35 34.265625 31.796875 23.59375 22.296875 23.59375 
z
" id="CMR17-57"/>
      </defs>
      <g style="fill:#262626;" transform="translate(71.955073 469.955543)scale(0.11 -0.11)">
       <use transform="scale(0.996264)" xlink:href="#CMR17-49"/>
       <use transform="translate(45.690477 0)scale(0.996264)" xlink:href="#CMR17-48"/>
       <use transform="translate(91.380954 36.153639)scale(0.697382)" xlink:href="#CMSY10-0"/>
       <use transform="translate(145.621947 36.153639)scale(0.697382)" xlink:href="#CMR17-49"/>
       <use transform="translate(177.605129 36.153639)scale(0.697382)" xlink:href="#CMR17-57"/>
      </g>
     </g>
    </g>
    <g id="ytick_3">
     <g id="text_12">
      <!-- $10^{-16}$ -->
      <defs>
       <path d="M 10.59375 34.34375 
C 10.59375 58 21.796875 63.6875 28.296875 63.6875 
C 30.40625 63.6875 35.5 63.265625 37.5 59.09375 
C 35.90625 59.09375 32.90625 59.09375 32.90625 55.59375 
C 32.90625 52.890625 35.09375 52 36.5 52 
C 37.40625 52 40.09375 52.390625 40.09375 55.796875 
C 40.09375 62.296875 35.09375 66 28.203125 66 
C 16.296875 66 3.796875 53.296875 3.796875 31.421875 
C 3.796875 4.015625 15.09375 -2 23.09375 -2 
C 32.796875 -2 42 6.734375 42 20.234375 
C 42 32.828125 33.90625 42 23.703125 42 
C 17.59375 42 13.09375 37.96875 10.59375 30.921875 
z
M 23.09375 0.390625 
C 10.796875 0.390625 10.796875 18.9375 10.796875 22.65625 
C 10.796875 29.90625 14.203125 40.390625 23.5 40.390625 
C 25.203125 40.390625 30.09375 40.390625 33.40625 33.4375 
C 35.203125 29.515625 35.203125 25.375 35.203125 20.34375 
C 35.203125 14.90625 35.203125 10.875 33.09375 6.84375 
C 30.90625 2.703125 27.703125 0.390625 23.09375 0.390625 
z
" id="CMR17-54"/>
      </defs>
      <g style="fill:#262626;" transform="translate(71.955073 415.651473)scale(0.11 -0.11)">
       <use transform="scale(0.996264)" xlink:href="#CMR17-49"/>
       <use transform="translate(45.690477 0)scale(0.996264)" xlink:href="#CMR17-48"/>
       <use transform="translate(91.380954 36.153639)scale(0.697382)" xlink:href="#CMSY10-0"/>
       <use transform="translate(145.621947 36.153639)scale(0.697382)" xlink:href="#CMR17-49"/>
       <use transform="translate(177.605129 36.153639)scale(0.697382)" xlink:href="#CMR17-54"/>
      </g>
     </g>
    </g>
    <g id="ytick_4">
     <g id="text_13">
      <!-- $10^{-13}$ -->
      <defs>
       <path d="M 22.09375 34 
C 31 34 34.90625 26.140625 34.90625 17.09375 
C 34.90625 5.03125 28.5 0.390625 22.703125 0.390625 
C 17.40625 0.390625 8.796875 3.015625 6.09375 10.796875 
C 6.59375 10.59375 7.09375 10.59375 7.59375 10.59375 
C 10 10.59375 11.796875 12.1875 11.796875 14.796875 
C 11.796875 17.6875 9.59375 19 7.59375 19 
C 5.90625 19 3.296875 18.1875 3.296875 14.484375 
C 3.296875 5.234375 12.296875 -2 22.90625 -2 
C 34 -2 42.5 6.75 42.5 16.984375 
C 42.5 26.84375 34.5 34 25 35.09375 
C 32.59375 36.671875 39.90625 43.375 39.90625 52.390625 
C 39.90625 60.25 32 66 23 66 
C 13.90625 66 5.90625 60.34375 5.90625 52.296875 
C 5.90625 48.796875 8.5 48.1875 9.796875 48.1875 
C 11.90625 48.1875 13.703125 49.484375 13.703125 52.09375 
C 13.703125 54.6875 11.90625 56 9.796875 56 
C 9.40625 56 8.90625 56 8.5 55.796875 
C 11.40625 62.484375 19.296875 63.6875 22.796875 63.6875 
C 26.296875 63.6875 32.90625 61.96875 32.90625 52.296875 
C 32.90625 49.484375 32.5 44.546875 29.09375 40.21875 
C 26.09375 36.390625 22.703125 36.1875 19.40625 35.890625 
C 18.90625 35.890625 16.59375 35.6875 16.203125 35.6875 
C 15.5 35.59375 15.09375 35.5 15.09375 34.796875 
C 15.09375 34.09375 15.203125 34 17.203125 34 
z
" id="CMR17-51"/>
      </defs>
      <g style="fill:#262626;" transform="translate(71.955073 361.347404)scale(0.11 -0.11)">
       <use transform="scale(0.996264)" xlink:href="#CMR17-49"/>
       <use transform="translate(45.690477 0)scale(0.996264)" xlink:href="#CMR17-48"/>
       <use transform="translate(91.380954 36.153639)scale(0.697382)" xlink:href="#CMSY10-0"/>
       <use transform="translate(145.621947 36.153639)scale(0.697382)" xlink:href="#CMR17-49"/>
       <use transform="translate(177.605129 36.153639)scale(0.697382)" xlink:href="#CMR17-51"/>
      </g>
     </g>
    </g>
    <g id="ytick_5">
     <g id="text_14">
      <!-- $10^{-10}$ -->
      <g style="fill:#262626;" transform="translate(71.955073 307.043335)scale(0.11 -0.11)">
       <use transform="scale(0.996264)" xlink:href="#CMR17-49"/>
       <use transform="translate(45.690477 0)scale(0.996264)" xlink:href="#CMR17-48"/>
       <use transform="translate(91.380954 36.153639)scale(0.697382)" xlink:href="#CMSY10-0"/>
       <use transform="translate(145.621947 36.153639)scale(0.697382)" xlink:href="#CMR17-49"/>
       <use transform="translate(177.605129 36.153639)scale(0.697382)" xlink:href="#CMR17-48"/>
      </g>
     </g>
    </g>
    <g id="ytick_6">
     <g id="text_15">
      <!-- $10^{-7}$ -->
      <g style="fill:#262626;" transform="translate(76.323412 252.739265)scale(0.11 -0.11)">
       <use transform="scale(0.996264)" xlink:href="#CMR17-49"/>
       <use transform="translate(45.690477 0)scale(0.996264)" xlink:href="#CMR17-48"/>
       <use transform="translate(91.380954 36.153639)scale(0.697382)" xlink:href="#CMSY10-0"/>
       <use transform="translate(145.621947 36.153639)scale(0.697382)" xlink:href="#CMR17-55"/>
      </g>
     </g>
    </g>
    <g id="ytick_7">
     <g id="text_16">
      <!-- $10^{-4}$ -->
      <defs>
       <path d="M 33.59375 64.796875 
C 33.59375 66.890625 33.5 67 31.703125 67 
L 2 19.59375 
L 2 17 
L 27.796875 17 
L 27.796875 7.1875 
C 27.796875 3.59375 27.59375 2.59375 20.59375 2.59375 
L 18.703125 2.59375 
L 18.703125 0 
C 21.90625 0.1875 27.296875 0.1875 30.703125 0.1875 
C 34.09375 0.1875 39.5 0.1875 42.703125 0 
L 42.703125 2.59375 
L 40.796875 2.59375 
C 33.796875 2.59375 33.59375 3.59375 33.59375 7.1875 
L 33.59375 17 
L 43.796875 17 
L 43.796875 19.59375 
L 33.59375 19.59375 
z
M 28.09375 58.171875 
L 28.09375 19.59375 
L 4 19.59375 
z
" id="CMR17-52"/>
      </defs>
      <g style="fill:#262626;" transform="translate(76.323412 198.435196)scale(0.11 -0.11)">
       <use transform="scale(0.996264)" xlink:href="#CMR17-49"/>
       <use transform="translate(45.690477 0)scale(0.996264)" xlink:href="#CMR17-48"/>
       <use transform="translate(91.380954 36.153639)scale(0.697382)" xlink:href="#CMSY10-0"/>
       <use transform="translate(145.621947 36.153639)scale(0.697382)" xlink:href="#CMR17-52"/>
      </g>
     </g>
    </g>
    <g id="ytick_8">
     <g id="text_17">
      <!-- $10^{-1}$ -->
      <g style="fill:#262626;" transform="translate(76.323412 144.131127)scale(0.11 -0.11)">
       <use transform="scale(0.996264)" xlink:href="#CMR17-49"/>
       <use transform="translate(45.690477 0)scale(0.996264)" xlink:href="#CMR17-48"/>
       <use transform="translate(91.380954 36.153639)scale(0.697382)" xlink:href="#CMSY10-0"/>
       <use transform="translate(145.621947 36.153639)scale(0.697382)" xlink:href="#CMR17-49"/>
      </g>
     </g>
    </g>
    <g id="ytick_9">
     <g id="text_18">
      <!-- $10^{2}$ -->
      <g style="fill:#262626;" transform="translate(83.172727 89.827057)scale(0.11 -0.11)">
       <use transform="scale(0.996264)" xlink:href="#CMR17-49"/>
       <use transform="translate(45.690477 0)scale(0.996264)" xlink:href="#CMR17-48"/>
       <use transform="translate(91.380954 36.153639)scale(0.697382)" xlink:href="#CMR17-50"/>
      </g>
     </g>
    </g>
   </g>
   <g id="line2d_1">
    <path clip-path="url(#pdcada6717f)" d="M 138.436364 109.310971 
L 141.623417 109.583305 
L 144.810471 110.28266 
L 147.997525 110.650827 
L 151.184579 111.54773 
L 154.371633 112.170068 
L 157.558686 113.112699 
L 163.932794 115.622334 
L 167.119848 117.504004 
L 173.493955 120.07786 
L 176.681009 121.954156 
L 179.868063 124.157699 
L 183.055117 125.703577 
L 186.24217 127.49796 
L 189.429224 129.457386 
L 192.616278 131.684172 
L 195.803332 133.582405 
L 211.738601 144.006978 
L 221.299762 150.30232 
L 224.486816 151.838636 
L 234.047977 157.119489 
L 240.422085 161.835632 
L 243.609139 164.051241 
L 246.796192 166.441386 
L 253.1703 170.835803 
L 256.357354 173.29936 
L 259.544407 175.547031 
L 262.731461 177.945306 
L 265.918515 179.666395 
L 269.105569 181.65127 
L 272.292623 182.93634 
L 275.479676 185.180159 
L 278.66673 186.760846 
L 285.040838 190.891078 
L 288.227891 193.355555 
L 291.414945 195.03905 
L 294.601999 197.35796 
L 297.789053 199.298428 
L 300.976107 201.03237 
L 310.537268 206.750442 
L 313.724322 208.486298 
L 320.098429 211.403614 
L 323.285483 212.69217 
L 326.472537 213.483159 
L 329.659591 214.434649 
L 332.846644 215.936184 
L 336.033698 217.197408 
L 339.220752 218.265794 
L 342.407806 219.463595 
L 348.781913 222.640911 
L 351.968967 224.881241 
L 358.343075 228.990975 
L 361.530129 231.224392 
L 364.717182 233.170129 
L 367.904236 235.246217 
L 371.09129 237.631872 
L 377.465397 241.883243 
L 380.652451 243.544223 
L 387.026559 247.192477 
L 390.213613 248.343648 
L 396.58772 251.222952 
L 399.774774 251.945126 
L 402.961828 253.163683 
L 406.148881 254.89973 
L 418.897097 263.733496 
L 438.019419 278.616432 
L 447.580581 285.805122 
L 453.954688 290.949469 
L 479.451119 312.422415 
L 485.825226 318.001492 
L 492.199334 323.116354 
L 495.386387 325.406546 
L 501.760495 330.390886 
L 530.443979 355.825853 
L 536.818087 361.013872 
L 540.00514 363.859838 
L 555.940409 377.415498 
L 575.062732 394.488942 
L 584.623893 402.94185 
L 622.868539 436.70026 
L 635.616754 447.740686 
L 641.990861 453.38102 
L 661.113184 470.353079 
L 683.422561 490.198917 
L 689.796668 495.386037 
L 696.170776 501.091995 
L 699.35783 503.760314 
L 702.544883 505.902128 
L 705.731937 508.349002 
L 712.106045 513.944362 
L 718.480152 519.570548 
L 728.041314 528.023776 
L 734.415421 533.7409 
L 740.789529 539.270467 
L 743.976583 542.135769 
L 747.163636 544.761818 
L 747.163636 544.761818 
" style="fill:none;stroke:#023eff;stroke-linecap:round;stroke-width:1.5;"/>
   </g>
   <g id="line2d_2">
    <path clip-path="url(#pdcada6717f)" d="M 138.436364 108.903481 
L 141.623417 107.264485 
L 144.810471 106.951922 
L 147.997525 107.687116 
L 151.184579 108.894821 
L 157.558686 110.807476 
L 163.932794 113.53582 
L 167.119848 114.983699 
L 170.306901 116.269416 
L 173.493955 117.418228 
L 183.055117 123.116893 
L 189.429224 126.383153 
L 192.616278 128.349672 
L 195.803332 130.473093 
L 202.177439 134.25008 
L 214.925654 142.947834 
L 218.112708 144.694085 
L 224.486816 148.474076 
L 230.860923 152.038365 
L 240.422085 158.818966 
L 243.609139 161.34436 
L 249.983246 165.785374 
L 256.357354 169.666005 
L 262.731461 174.478241 
L 265.918515 176.627552 
L 269.105569 178.160985 
L 272.292623 180.098729 
L 278.66673 184.357559 
L 281.853784 185.720509 
L 288.227891 190.066226 
L 294.601999 194.70665 
L 297.789053 196.731799 
L 300.976107 198.965336 
L 304.16316 201.051918 
L 307.350214 202.705345 
L 313.724322 207.200214 
L 316.911376 208.751861 
L 323.285483 210.821502 
L 326.472537 211.791486 
L 329.659591 212.537263 
L 336.033698 214.471836 
L 339.220752 214.963645 
L 342.407806 215.79099 
L 345.59486 217.48423 
L 348.781913 219.417455 
L 351.968967 220.667405 
L 358.343075 224.756862 
L 361.530129 227.020843 
L 364.717182 229.059688 
L 371.09129 233.529591 
L 380.652451 238.903667 
L 383.839505 240.113666 
L 387.026559 241.668198 
L 390.213613 242.618733 
L 393.400666 243.781427 
L 396.58772 245.224517 
L 399.774774 246.26095 
L 402.961828 247.513917 
L 409.335935 251.349126 
L 422.08415 260.453578 
L 431.645312 268.414523 
L 434.832366 270.830297 
L 444.393527 277.398726 
L 450.767634 282.486076 
L 473.077011 301.30366 
L 479.451119 306.808224 
L 504.947549 329.014572 
L 508.134603 331.451282 
L 514.50871 337.029421 
L 530.443979 351.015001 
L 536.818087 356.644302 
L 540.00514 359.315126 
L 594.185055 407.519187 
L 606.93327 418.62679 
L 616.494431 427.092007 
L 622.868539 432.663368 
L 632.4297 441.245683 
L 635.616754 443.923955 
L 654.739077 460.92862 
L 661.113184 466.514805 
L 670.674346 475.056405 
L 677.048453 480.449521 
L 680.235507 483.297894 
L 686.609614 488.726084 
L 689.796668 491.226426 
L 708.918991 507.081509 
L 712.106045 509.210306 
L 715.293099 511.547456 
L 721.667206 517.111273 
L 728.041314 522.582965 
L 731.228367 525.365728 
L 737.602475 530.583292 
L 740.789529 533.394971 
L 747.163636 538.217291 
L 747.163636 538.217291 
" style="fill:none;stroke:#ff7c00;stroke-linecap:round;stroke-width:1.5;"/>
   </g>
   <g id="line2d_3">
    <path clip-path="url(#pdcada6717f)" d="M 138.436364 106.568259 
L 141.623417 106.7704 
L 144.810471 106.587596 
L 147.997525 107.285615 
L 151.184579 107.502509 
L 154.371633 107.491642 
L 157.558686 107.828158 
L 160.74574 109.63702 
L 163.932794 110.57723 
L 179.868063 118.969268 
L 186.24217 123.452425 
L 192.616278 127.105112 
L 195.803332 129.449499 
L 198.990386 131.333357 
L 202.177439 133.460009 
L 205.364493 135.819555 
L 208.551547 137.81106 
L 211.738601 140.047921 
L 214.925654 141.865932 
L 218.112708 144.125899 
L 230.860923 151.650493 
L 234.047977 153.776019 
L 237.235031 155.720668 
L 240.422085 158.066248 
L 243.609139 160.268466 
L 246.796192 162.682523 
L 249.983246 165.280772 
L 259.544407 171.138797 
L 262.731461 173.478633 
L 269.105569 177.329037 
L 285.040838 187.553567 
L 288.227891 189.747247 
L 291.414945 191.564006 
L 294.601999 192.932626 
L 297.789053 194.638675 
L 300.976107 196.749279 
L 304.16316 198.704968 
L 307.350214 200.457521 
L 310.537268 202.663733 
L 313.724322 204.3451 
L 316.911376 205.553322 
L 320.098429 207.570555 
L 326.472537 209.175322 
L 329.659591 210.614613 
L 332.846644 211.213385 
L 336.033698 212.453347 
L 339.220752 213.421981 
L 342.407806 214.063749 
L 351.968967 218.213517 
L 355.156021 219.848631 
L 358.343075 221.634974 
L 361.530129 223.560605 
L 364.717182 225.21261 
L 367.904236 227.505 
L 371.09129 229.471842 
L 374.278344 231.069754 
L 377.465397 232.838554 
L 380.652451 234.772871 
L 383.839505 235.678227 
L 387.026559 236.75818 
L 390.213613 237.615088 
L 393.400666 238.912451 
L 396.58772 239.350684 
L 399.774774 240.507339 
L 402.961828 241.944396 
L 406.148881 243.946414 
L 409.335935 245.704786 
L 412.522989 247.883376 
L 418.897097 252.636491 
L 431.645312 262.511345 
L 434.832366 264.595125 
L 444.393527 271.682528 
L 447.580581 273.568448 
L 450.767634 276.154232 
L 453.954688 278.436717 
L 460.328796 283.670829 
L 469.889957 291.887553 
L 476.264065 297.349602 
L 482.638172 302.772678 
L 520.882818 336.438988 
L 540.00514 353.269711 
L 543.192194 355.675632 
L 546.379248 358.287958 
L 555.940409 366.686131 
L 559.127463 369.17138 
L 568.688624 377.734074 
L 571.875678 380.294927 
L 587.810947 394.197984 
L 594.185055 399.86488 
L 597.372109 402.391712 
L 600.559162 405.099419 
L 606.93327 410.123606 
L 616.494431 418.554489 
L 619.681485 421.264088 
L 629.242646 429.730565 
L 645.177915 443.717368 
L 648.364969 446.556985 
L 651.552023 449.020968 
L 657.92613 454.55319 
L 667.487292 463.100336 
L 670.674346 465.804339 
L 696.170776 488.623969 
L 699.35783 491.258946 
L 702.544883 493.589176 
L 705.731937 496.087166 
L 712.106045 501.497343 
L 718.480152 506.500972 
L 740.789529 525.966634 
L 747.163636 531.33056 
L 747.163636 531.33056 
" style="fill:none;stroke:#1ac938;stroke-linecap:round;stroke-width:1.5;"/>
   </g>
   <g id="line2d_4">
    <path clip-path="url(#pdcada6717f)" d="M 138.436364 106.149377 
L 141.623417 105.637443 
L 144.810471 106.020236 
L 147.997525 106.541482 
L 151.184579 106.633982 
L 154.371633 106.577922 
L 160.74574 108.405515 
L 167.119848 111.996952 
L 170.306901 113.419545 
L 176.681009 116.66625 
L 183.055117 120.837301 
L 186.24217 122.295669 
L 195.803332 127.827656 
L 198.990386 129.845578 
L 202.177439 131.515774 
L 205.364493 133.723691 
L 211.738601 137.793952 
L 214.925654 139.605328 
L 218.112708 141.123713 
L 224.486816 145.577821 
L 227.67387 147.32551 
L 240.422085 155.815958 
L 253.1703 165.178057 
L 256.357354 167.171499 
L 259.544407 169.458604 
L 262.731461 171.347481 
L 265.918515 173.098634 
L 269.105569 175.030139 
L 272.292623 176.380702 
L 275.479676 178.341061 
L 278.66673 180.081416 
L 285.040838 184.283425 
L 294.601999 191.768908 
L 297.789053 193.711083 
L 300.976107 195.482791 
L 304.16316 196.967416 
L 307.350214 199.009124 
L 310.537268 200.80667 
L 313.724322 202.811461 
L 316.911376 204.350512 
L 320.098429 205.619849 
L 323.285483 207.599149 
L 326.472537 207.99786 
L 329.659591 208.032378 
L 336.033698 210.483588 
L 339.220752 211.510572 
L 342.407806 212.003585 
L 345.59486 212.747117 
L 348.781913 214.790136 
L 351.968967 216.670217 
L 361.530129 221.703589 
L 364.717182 223.859212 
L 367.904236 225.667835 
L 374.278344 229.518261 
L 377.465397 231.437971 
L 380.652451 232.312701 
L 383.839505 233.426137 
L 387.026559 234.124288 
L 393.400666 235.798541 
L 396.58772 237.35131 
L 399.774774 238.608604 
L 402.961828 240.387154 
L 406.148881 241.848055 
L 409.335935 243.744778 
L 412.522989 246.255357 
L 418.897097 250.946 
L 428.458258 258.846398 
L 434.832366 263.544672 
L 441.206473 268.220201 
L 450.767634 275.731965 
L 457.141742 280.737487 
L 469.889957 291.537377 
L 473.077011 294.158396 
L 479.451119 299.712166 
L 485.825226 305.20148 
L 489.01228 307.966588 
L 495.386387 313.284756 
L 501.760495 318.722529 
L 514.50871 330.024161 
L 527.256925 341.25723 
L 543.192194 355.371599 
L 546.379248 357.21126 
L 549.566302 359.92633 
L 559.127463 367.518597 
L 565.501571 372.837294 
L 571.875678 378.447523 
L 575.062732 380.569574 
L 581.43684 386.176124 
L 597.372109 400.462365 
L 610.120324 411.847086 
L 616.494431 417.186056 
L 670.674346 464.302392 
L 673.861399 466.895232 
L 689.796668 481.085227 
L 692.983722 483.545459 
L 702.544883 492.091267 
L 708.918991 497.290731 
L 724.85426 509.466447 
L 734.415421 517.626171 
L 740.789529 523.205768 
L 747.163636 528.932994 
L 747.163636 528.932994 
" style="fill:none;stroke:#e8000b;stroke-linecap:round;stroke-width:1.5;"/>
   </g>
   <g id="line2d_5">
    <path clip-path="url(#pdcada6717f)" d="M 138.436364 105.491081 
L 141.623417 105.286999 
L 144.810471 105.352907 
L 147.997525 105.716953 
L 151.184579 105.146066 
L 154.371633 105.351988 
L 157.558686 106.180976 
L 170.306901 111.469287 
L 173.493955 113.065971 
L 179.868063 117.291293 
L 183.055117 119.260363 
L 186.24217 121.037515 
L 189.429224 122.964276 
L 192.616278 124.310982 
L 195.803332 126.542191 
L 198.990386 128.623395 
L 202.177439 130.558862 
L 205.364493 132.117509 
L 208.551547 134.106227 
L 211.738601 136.285074 
L 214.925654 137.995905 
L 218.112708 140.302405 
L 221.299762 141.881247 
L 224.486816 143.888592 
L 227.67387 145.271087 
L 240.422085 153.356705 
L 246.796192 158.058743 
L 259.544407 167.824286 
L 262.731461 169.728645 
L 265.918515 172.026701 
L 269.105569 174.134586 
L 272.292623 175.553973 
L 275.479676 177.781348 
L 278.66673 179.520123 
L 288.227891 186.216738 
L 291.414945 188.550521 
L 294.601999 190.307445 
L 297.789053 192.317529 
L 300.976107 194.559587 
L 307.350214 198.292236 
L 310.537268 199.579581 
L 313.724322 201.768687 
L 316.911376 203.388571 
L 320.098429 203.753823 
L 323.285483 204.747479 
L 326.472537 204.434883 
L 329.659591 204.949358 
L 332.846644 205.207714 
L 336.033698 206.112163 
L 339.220752 205.994502 
L 342.407806 207.053774 
L 345.59486 208.564567 
L 348.781913 209.756369 
L 355.156021 212.873371 
L 358.343075 214.917831 
L 361.530129 216.676707 
L 364.717182 218.865026 
L 371.09129 222.392538 
L 374.278344 224.552661 
L 377.465397 226.496561 
L 383.839505 229.686316 
L 387.026559 230.661661 
L 390.213613 231.755915 
L 393.400666 231.799355 
L 396.58772 233.378175 
L 399.774774 234.566673 
L 402.961828 236.00072 
L 406.148881 237.129299 
L 409.335935 238.930048 
L 412.522989 240.947345 
L 415.710043 243.210803 
L 422.08415 248.184828 
L 428.458258 253.283063 
L 431.645312 255.785675 
L 434.832366 258.045357 
L 450.767634 270.637766 
L 460.328796 278.606149 
L 466.702903 283.573575 
L 473.077011 288.990473 
L 479.451119 293.933771 
L 492.199334 304.626611 
L 495.386387 306.911656 
L 504.947549 315.010089 
L 511.321656 320.575974 
L 514.50871 323.218522 
L 520.882818 328.845283 
L 530.443979 337.198992 
L 562.314517 365.604389 
L 571.875678 373.79561 
L 575.062732 375.69881 
L 578.249786 377.774175 
L 584.623893 383.314469 
L 603.746216 400.421824 
L 619.681485 414.702066 
L 632.4297 425.606955 
L 638.803808 431.156209 
L 648.364969 439.603444 
L 657.92613 448.101861 
L 664.300238 453.618474 
L 670.674346 458.115385 
L 673.861399 460.623095 
L 677.048453 462.266199 
L 680.235507 464.574263 
L 683.422561 466.714956 
L 686.609614 468.585738 
L 692.983722 473.250145 
L 699.35783 478.849985 
L 702.544883 481.70834 
L 708.918991 486.825471 
L 724.85426 500.880586 
L 728.041314 503.653851 
L 734.415421 508.909578 
L 740.789529 514.30631 
L 743.976583 516.779268 
L 747.163636 519.5495 
L 747.163636 519.5495 
" style="fill:none;stroke:#8b2be2;stroke-linecap:round;stroke-width:1.5;"/>
   </g>
   <g id="line2d_6">
    <path clip-path="url(#pdcada6717f)" d="M 138.436364 105.36855 
L 141.623417 104.465475 
L 144.810471 104.317435 
L 151.184579 104.496739 
L 154.371633 104.237266 
L 157.558686 105.05615 
L 163.932794 107.462735 
L 167.119848 109.133527 
L 170.306901 110.256888 
L 173.493955 111.740078 
L 183.055117 118.407865 
L 186.24217 119.675524 
L 189.429224 121.736917 
L 195.803332 125.445964 
L 198.990386 127.564353 
L 202.177439 129.412144 
L 205.364493 131.587873 
L 208.551547 132.70627 
L 211.738601 134.334003 
L 214.925654 136.126818 
L 218.112708 137.692076 
L 221.299762 139.919969 
L 227.67387 143.611534 
L 230.860923 145.4365 
L 240.422085 151.821653 
L 243.609139 154.362957 
L 253.1703 161.154135 
L 259.544407 166.054512 
L 262.731461 168.530542 
L 269.105569 173.170101 
L 272.292623 174.793353 
L 281.853784 180.916005 
L 285.040838 182.802497 
L 288.227891 185.130694 
L 294.601999 189.469199 
L 297.789053 191.829232 
L 300.976107 193.436184 
L 304.16316 194.740859 
L 307.350214 195.248004 
L 313.724322 198.171663 
L 316.911376 199.346981 
L 320.098429 199.874227 
L 323.285483 200.944119 
L 326.472537 201.034145 
L 329.659591 201.449721 
L 332.846644 201.451593 
L 336.033698 202.42282 
L 339.220752 203.253212 
L 342.407806 205.010947 
L 345.59486 206.444235 
L 348.781913 208.062705 
L 351.968967 209.22549 
L 355.156021 211.129582 
L 358.343075 213.176929 
L 361.530129 214.947997 
L 364.717182 217.237747 
L 371.09129 221.451696 
L 374.278344 223.762674 
L 380.652451 227.572213 
L 383.839505 227.624309 
L 387.026559 228.07611 
L 390.213613 227.045084 
L 393.400666 228.596766 
L 396.58772 229.053417 
L 399.774774 230.119286 
L 402.961828 231.484808 
L 406.148881 233.308931 
L 409.335935 235.309872 
L 415.710043 238.903667 
L 425.271204 244.638779 
L 428.458258 246.177466 
L 431.645312 247.268433 
L 434.832366 248.558027 
L 444.393527 255.707136 
L 457.141742 265.727627 
L 466.702903 273.802912 
L 495.386387 298.794049 
L 501.760495 304.375529 
L 504.947549 307.144629 
L 508.134603 309.347831 
L 514.50871 314.509763 
L 517.695764 317.265795 
L 520.882818 319.815045 
L 530.443979 328.319947 
L 552.753356 347.866445 
L 559.127463 353.539056 
L 568.688624 361.456455 
L 594.185055 384.166184 
L 597.372109 386.723003 
L 603.746216 392.390665 
L 606.93327 394.957164 
L 610.120324 397.348504 
L 613.307377 398.947897 
L 616.494431 401.123077 
L 619.681485 403.154921 
L 626.055593 407.725895 
L 635.616754 415.939749 
L 667.487292 444.398509 
L 683.422561 458.629723 
L 692.983722 466.890912 
L 699.35783 472.231021 
L 712.106045 483.502462 
L 718.480152 488.915861 
L 724.85426 494.483906 
L 731.228367 499.596457 
L 743.976583 510.99749 
L 747.163636 513.670985 
L 747.163636 513.670985 
" style="fill:none;stroke:#9f4800;stroke-linecap:round;stroke-width:1.5;"/>
   </g>
   <g id="line2d_7">
    <path clip-path="url(#pdcada6717f)" d="M 138.436364 104.492618 
L 141.623417 104.191933 
L 144.810471 103.045062 
L 154.371633 103.051918 
L 157.558686 104.172132 
L 160.74574 105.444443 
L 163.932794 106.520125 
L 167.119848 108.02325 
L 170.306901 109.387384 
L 176.681009 112.834028 
L 183.055117 115.497736 
L 186.24217 117.027161 
L 189.429224 118.881431 
L 205.364493 130.284563 
L 208.551547 132.316469 
L 214.925654 135.5495 
L 218.112708 137.636044 
L 221.299762 138.711342 
L 224.486816 140.412907 
L 227.67387 141.679773 
L 234.047977 146.007973 
L 253.1703 160.000829 
L 256.357354 162.042068 
L 259.544407 164.364456 
L 262.731461 166.498241 
L 265.918515 168.142387 
L 275.479676 173.580625 
L 278.66673 175.069217 
L 281.853784 177.009236 
L 291.414945 183.636204 
L 294.601999 186.085735 
L 304.16316 192.160935 
L 307.350214 193.974219 
L 310.537268 194.954214 
L 313.724322 196.974828 
L 316.911376 198.856921 
L 320.098429 199.695519 
L 323.285483 200.110582 
L 332.846644 200.35915 
L 336.033698 201.388195 
L 339.220752 201.731738 
L 342.407806 202.244789 
L 345.59486 203.776438 
L 348.781913 205.56595 
L 351.968967 206.543791 
L 355.156021 207.67729 
L 361.530129 211.463599 
L 364.717182 212.766045 
L 377.465397 218.572087 
L 380.652451 219.991835 
L 383.839505 221.134023 
L 387.026559 221.795188 
L 396.58772 224.64157 
L 406.148881 228.357908 
L 409.335935 229.754557 
L 412.522989 231.682876 
L 418.897097 236.303829 
L 422.08415 238.710728 
L 425.271204 241.284643 
L 428.458258 243.438014 
L 434.832366 248.285524 
L 438.019419 250.259946 
L 441.206473 251.45566 
L 444.393527 253.318684 
L 450.767634 258.357091 
L 453.954688 261.102412 
L 463.51585 268.944461 
L 469.889957 274.385499 
L 479.451119 282.650509 
L 485.825226 288.152452 
L 492.199334 293.509745 
L 501.760495 301.390184 
L 508.134603 307.073882 
L 517.695764 314.947086 
L 520.882818 317.044205 
L 524.069871 318.779085 
L 527.256925 321.56682 
L 530.443979 324.151319 
L 543.192194 335.566303 
L 546.379248 338.21334 
L 555.940409 346.717184 
L 562.314517 352.381407 
L 568.688624 357.203726 
L 587.810947 374.177612 
L 597.372109 382.587802 
L 603.746216 387.571682 
L 619.681485 401.709065 
L 626.055593 406.875312 
L 641.990861 420.462429 
L 648.364969 426.101952 
L 651.552023 428.540617 
L 657.92613 434.060979 
L 692.983722 465.051656 
L 699.35783 470.674888 
L 708.918991 479.070541 
L 712.106045 481.517276 
L 721.667206 489.699205 
L 747.163636 512.270938 
L 747.163636 512.270938 
" style="fill:none;stroke:#f14cc1;stroke-linecap:round;stroke-width:1.5;"/>
   </g>
   <g id="line2d_8">
    <path clip-path="url(#pdcada6717f)" d="M 138.436364 103.628175 
L 141.623417 103.19731 
L 144.810471 102.350193 
L 147.997525 102.084937 
L 154.371633 102.909167 
L 157.558686 103.416974 
L 160.74574 103.409791 
L 163.932794 105.060578 
L 173.493955 109.295777 
L 176.681009 110.803797 
L 179.868063 113.029276 
L 183.055117 113.889885 
L 189.429224 118.080954 
L 205.364493 128.558023 
L 208.551547 130.370504 
L 211.738601 131.538876 
L 214.925654 133.154208 
L 218.112708 135.096116 
L 234.047977 143.946939 
L 237.235031 146.113955 
L 246.796192 153.242059 
L 249.983246 155.382612 
L 253.1703 157.932245 
L 259.544407 162.384333 
L 262.731461 164.648929 
L 272.292623 170.529382 
L 275.479676 172.833818 
L 278.66673 174.718065 
L 285.040838 178.888317 
L 288.227891 180.672559 
L 291.414945 182.667461 
L 294.601999 185.009533 
L 297.789053 187.163927 
L 300.976107 189.489612 
L 304.16316 191.542745 
L 307.350214 192.501254 
L 310.537268 193.222983 
L 313.724322 194.314141 
L 316.911376 194.134958 
L 320.098429 194.79446 
L 323.285483 196.022225 
L 326.472537 196.758549 
L 329.659591 196.653109 
L 332.846644 197.224517 
L 336.033698 197.61803 
L 339.220752 197.316914 
L 342.407806 197.775958 
L 348.781913 199.523712 
L 355.156021 201.9481 
L 358.343075 203.928893 
L 367.904236 208.704618 
L 374.278344 212.453347 
L 377.465397 213.966563 
L 380.652451 215.862081 
L 387.026559 218.465396 
L 390.213613 219.230163 
L 393.400666 220.689008 
L 396.58772 221.994411 
L 399.774774 222.336318 
L 402.961828 223.804361 
L 406.148881 225.891042 
L 412.522989 229.598479 
L 418.897097 234.499961 
L 425.271204 239.738771 
L 428.458258 242.110935 
L 431.645312 244.243744 
L 434.832366 246.563236 
L 438.019419 248.424278 
L 441.206473 250.609099 
L 444.393527 252.432677 
L 447.580581 254.41623 
L 453.954688 259.025964 
L 457.141742 261.504284 
L 460.328796 264.125319 
L 463.51585 266.38688 
L 473.077011 274.33162 
L 479.451119 279.802577 
L 511.321656 307.384718 
L 520.882818 315.894398 
L 524.069871 318.51125 
L 527.256925 320.504959 
L 530.443979 322.862303 
L 536.818087 328.121871 
L 559.127463 347.97743 
L 562.314517 350.702589 
L 565.501571 353.080272 
L 568.688624 355.300348 
L 571.875678 357.29461 
L 578.249786 362.477048 
L 581.43684 365.275936 
L 584.623893 367.566284 
L 590.998001 372.588223 
L 606.93327 386.719785 
L 613.307377 392.028566 
L 619.681485 397.643663 
L 622.868539 400.379662 
L 626.055593 402.746745 
L 629.242646 404.918236 
L 638.803808 413.438087 
L 651.552023 424.689578 
L 657.92613 430.263659 
L 670.674346 441.587165 
L 743.976583 506.264721 
L 747.163636 509.127987 
L 747.163636 509.127987 
" style="fill:none;stroke:#a3a3a3;stroke-linecap:round;stroke-width:1.5;"/>
   </g>
   <g id="line2d_9">
    <path clip-path="url(#pdcada6717f)" d="M 138.436364 103.162448 
L 141.623417 102.182594 
L 144.810471 101.619774 
L 147.997525 101.799039 
L 154.371633 101.562808 
L 157.558686 101.775677 
L 160.74574 102.868852 
L 163.932794 104.261231 
L 167.119848 105.310736 
L 173.493955 108.311204 
L 176.681009 109.883386 
L 179.868063 111.767054 
L 183.055117 113.373513 
L 189.429224 117.371447 
L 192.616278 118.754017 
L 195.803332 120.407754 
L 198.990386 122.383417 
L 202.177439 123.740706 
L 205.364493 125.618379 
L 208.551547 127.77333 
L 211.738601 129.687588 
L 214.925654 132.018519 
L 221.299762 135.980727 
L 224.486816 136.665573 
L 227.67387 137.937673 
L 230.860923 139.43504 
L 246.796192 151.411807 
L 249.983246 152.970401 
L 256.357354 156.922288 
L 259.544407 157.59275 
L 262.731461 158.60621 
L 269.105569 162.499615 
L 272.292623 164.77835 
L 275.479676 166.06489 
L 278.66673 167.921002 
L 281.853784 169.936593 
L 285.040838 172.219709 
L 288.227891 174.198618 
L 291.414945 176.388421 
L 304.16316 185.969932 
L 307.350214 187.559961 
L 310.537268 189.465122 
L 313.724322 190.226213 
L 316.911376 191.22544 
L 320.098429 191.57999 
L 323.285483 190.430888 
L 329.659591 191.395505 
L 332.846644 192.294132 
L 336.033698 193.483603 
L 339.220752 194.098136 
L 342.407806 194.268961 
L 345.59486 195.189543 
L 348.781913 196.999231 
L 351.968967 198.159337 
L 364.717182 204.796032 
L 367.904236 206.977782 
L 374.278344 210.058237 
L 377.465397 211.673789 
L 380.652451 212.214201 
L 383.839505 213.399696 
L 387.026559 212.583415 
L 390.213613 213.426274 
L 393.400666 213.998825 
L 396.58772 214.99294 
L 399.774774 215.249698 
L 402.961828 215.768977 
L 406.148881 217.367108 
L 412.522989 221.686379 
L 415.710043 223.820454 
L 418.897097 226.142387 
L 428.458258 233.739538 
L 438.019419 240.154731 
L 444.393527 244.860369 
L 450.767634 249.96498 
L 473.077011 268.891523 
L 479.451119 274.43975 
L 489.01228 282.27569 
L 492.199334 284.238876 
L 498.573441 289.718844 
L 511.321656 301.049656 
L 520.882818 309.557524 
L 524.069871 312.156409 
L 540.00514 326.302367 
L 549.566302 334.284129 
L 555.940409 339.162842 
L 562.314517 344.672834 
L 568.688624 350.223482 
L 571.875678 352.917086 
L 587.810947 367.187286 
L 597.372109 374.648087 
L 603.746216 380.002133 
L 610.120324 385.495102 
L 613.307377 388.288035 
L 616.494431 390.700246 
L 635.616754 407.698018 
L 638.803808 410.367288 
L 641.990861 412.820924 
L 645.177915 415.463549 
L 654.739077 423.839186 
L 657.92613 426.487194 
L 667.487292 433.79491 
L 670.674346 436.158875 
L 673.861399 438.80503 
L 683.422561 447.314056 
L 696.170776 458.109729 
L 708.918991 469.412106 
L 721.667206 480.725731 
L 737.602475 494.914405 
L 743.976583 500.266402 
L 747.163636 503.089307 
L 747.163636 503.089307 
" style="fill:none;stroke:#ffc400;stroke-linecap:round;stroke-width:1.5;"/>
   </g>
   <g id="line2d_10">
    <path clip-path="url(#pdcada6717f)" d="M 138.436364 102.605246 
L 144.810471 101.377695 
L 147.997525 99.998182 
L 151.184579 100.562184 
L 157.558686 101.32245 
L 160.74574 101.338983 
L 163.932794 102.375329 
L 167.119848 104.076213 
L 170.306901 105.516381 
L 173.493955 106.715548 
L 176.681009 108.354177 
L 179.868063 110.631014 
L 183.055117 112.652813 
L 186.24217 114.390167 
L 192.616278 118.50522 
L 195.803332 119.28196 
L 202.177439 123.057238 
L 208.551547 126.335266 
L 211.738601 128.220516 
L 214.925654 129.324372 
L 218.112708 131.436713 
L 227.67387 136.972518 
L 234.047977 139.38606 
L 240.422085 143.362395 
L 243.609139 145.745188 
L 246.796192 147.404422 
L 249.983246 148.906877 
L 256.357354 152.845739 
L 259.544407 155.166787 
L 262.731461 157.287687 
L 265.918515 157.749839 
L 269.105569 159.414402 
L 272.292623 161.633296 
L 275.479676 163.105686 
L 278.66673 164.79954 
L 281.853784 166.131635 
L 288.227891 169.906064 
L 291.414945 171.016975 
L 294.601999 172.417575 
L 297.789053 173.399038 
L 300.976107 174.65587 
L 304.16316 176.070596 
L 313.724322 180.936637 
L 323.285483 184.772674 
L 326.472537 185.352154 
L 329.659591 186.845081 
L 332.846644 187.091277 
L 336.033698 187.106357 
L 339.220752 186.915481 
L 342.407806 187.823384 
L 345.59486 189.126134 
L 348.781913 189.905119 
L 351.968967 190.128057 
L 355.156021 190.964709 
L 358.343075 192.567493 
L 361.530129 193.196735 
L 364.717182 193.676191 
L 367.904236 193.476811 
L 371.09129 194.678914 
L 374.278344 194.944389 
L 377.465397 195.687846 
L 383.839505 195.895622 
L 387.026559 196.140414 
L 390.213613 196.559105 
L 396.58772 199.64031 
L 399.774774 200.792884 
L 402.961828 202.244789 
L 406.148881 203.959742 
L 409.335935 205.991166 
L 412.522989 208.185199 
L 431.645312 223.372725 
L 434.832366 225.97111 
L 438.019419 228.369393 
L 447.580581 236.078472 
L 457.141742 243.441922 
L 460.328796 246.056605 
L 463.51585 248.476021 
L 466.702903 250.737582 
L 473.077011 256.186633 
L 479.451119 261.098717 
L 482.638172 263.879466 
L 485.825226 266.423157 
L 498.573441 277.6343 
L 520.882818 297.401812 
L 527.256925 302.960129 
L 533.631033 308.593438 
L 540.00514 314.155154 
L 549.566302 322.671888 
L 559.127463 331.136173 
L 565.501571 336.519895 
L 578.249786 347.743431 
L 587.810947 356.207829 
L 616.494431 381.77895 
L 619.681485 384.605959 
L 622.868539 387.132505 
L 664.300238 423.904516 
L 670.674346 429.277402 
L 673.861399 431.890818 
L 686.609614 443.276843 
L 689.796668 445.854559 
L 692.983722 448.268227 
L 699.35783 453.631256 
L 705.731937 459.080308 
L 708.918991 461.74656 
L 712.106045 463.896674 
L 731.228367 480.542151 
L 734.415421 483.214778 
L 737.602475 486.040397 
L 743.976583 491.334064 
L 747.163636 494.070279 
L 747.163636 494.070279 
" style="fill:none;stroke:#00d7ff;stroke-linecap:round;stroke-width:1.5;"/>
   </g>
   <g id="patch_3">
    <path d="M 108 567 
L 108 77.76 
" style="fill:none;stroke:#ffffff;stroke-linecap:square;stroke-linejoin:miter;stroke-width:1.25;"/>
   </g>
   <g id="patch_4">
    <path d="M 777.6 567 
L 777.6 77.76 
" style="fill:none;stroke:#ffffff;stroke-linecap:square;stroke-linejoin:miter;stroke-width:1.25;"/>
   </g>
   <g id="patch_5">
    <path d="M 108 567 
L 777.6 567 
" style="fill:none;stroke:#ffffff;stroke-linecap:square;stroke-linejoin:miter;stroke-width:1.25;"/>
   </g>
   <g id="patch_6">
    <path d="M 108 77.76 
L 777.6 77.76 
" style="fill:none;stroke:#ffffff;stroke-linecap:square;stroke-linejoin:miter;stroke-width:1.25;"/>
   </g>
  </g>
 </g>
 <defs>
  <clipPath id="pdcada6717f">
   <rect height="489.24" width="669.6" x="108" y="77.76"/>
  </clipPath>
 </defs>
</svg>
