<?xml version="1.0" encoding="utf-8" standalone="no"?>
<!DOCTYPE svg PUBLIC "-//W3C//DTD SVG 1.1//EN"
  "http://www.w3.org/Graphics/SVG/1.1/DTD/svg11.dtd">
<!-- Created with matplotlib (http://matplotlib.org/) -->
<svg height="345.6pt" version="1.1" viewBox="0 0 460.8 345.6" width="460.8pt" xmlns="http://www.w3.org/2000/svg" xmlns:xlink="http://www.w3.org/1999/xlink">
 <defs>
  <style type="text/css">
*{stroke-linecap:butt;stroke-linejoin:round;}
  </style>
 </defs>
 <g id="figure_1">
  <g id="patch_1">
   <path d="M 0 345.6 
L 460.8 345.6 
L 460.8 0 
L 0 0 
z
" style="fill:#ffffff;"/>
  </g>
  <g id="axes_1">
   <g id="patch_2">
    <path d="M 57.6 307.584 
L 414.72 307.584 
L 414.72 41.472 
L 57.6 41.472 
z
" style="fill:#ffffff;"/>
   </g>
   <g id="matplotlib.axis_1">
    <g id="xtick_1">
     <g id="line2d_1">
      <path clip-path="url(#pc6e07dbe3d)" d="M 57.6 307.584 
L 57.6 41.472 
" style="fill:none;stroke:#cccccc;stroke-linecap:round;"/>
     </g>
     <g id="text_1">
      <!-- $0$ -->
      <defs>
       <path d="M 42 31.640625 
C 42 37.75 41.90625 48.125 37.703125 56.109375 
C 34 63.109375 28.09375 65.59375 22.90625 65.59375 
C 18.09375 65.59375 12 63.40625 8.203125 56.203125 
C 4.203125 48.71875 3.796875 39.4375 3.796875 31.640625 
C 3.796875 25.953125 3.90625 17.28125 7 9.671875 
C 11.296875 -0.609375 19 -2 22.90625 -2 
C 27.5 -2 34.5 -0.109375 38.59375 9.375 
C 41.59375 16.28125 42 24.359375 42 31.640625 
z
M 22.90625 -0.40625 
C 16.5 -0.40625 12.703125 5.078125 11.296875 12.6875 
C 10.203125 18.5625 10.203125 27.15625 10.203125 32.75 
C 10.203125 40.4375 10.203125 46.828125 11.5 52.921875 
C 13.40625 61.390625 19 64 22.90625 64 
C 27 64 32.296875 61.296875 34.203125 53.125 
C 35.5 47.4375 35.59375 40.734375 35.59375 32.75 
C 35.59375 26.25 35.59375 18.265625 34.40625 12.375 
C 32.296875 1.484375 26.40625 -0.40625 22.90625 -0.40625 
z
" id="CMR17-48"/>
      </defs>
      <g style="fill:#262626;" transform="translate(54.860266 324.694347)scale(0.11 -0.11)">
       <use transform="scale(0.996264)" xlink:href="#CMR17-48"/>
      </g>
     </g>
    </g>
    <g id="xtick_2">
     <g id="line2d_2">
      <path clip-path="url(#pc6e07dbe3d)" d="M 117.12 307.584 
L 117.12 41.472 
" style="fill:none;stroke:#cccccc;stroke-linecap:round;"/>
     </g>
     <g id="text_2">
      <!-- $1$ -->
      <defs>
       <path d="M 26.59375 63.40625 
C 26.59375 65.5 26.5 65.5 25.09375 65.5 
C 21.203125 61.1875 15.296875 59.796875 9.703125 59.796875 
C 9.40625 59.796875 8.90625 59.796875 8.796875 59.5 
C 8.703125 59.296875 8.703125 59.09375 8.703125 57 
C 11.796875 57 17 57.59375 21 59.984375 
L 21 7.203125 
C 21 3.6875 20.796875 2.5 12.203125 2.5 
L 9.203125 2.5 
L 9.203125 0 
C 14 0 19 0 23.796875 0 
C 28.59375 0 33.59375 0 38.40625 0 
L 38.40625 2.5 
L 35.40625 2.5 
C 26.796875 2.5 26.59375 3.59375 26.59375 7.15625 
z
" id="CMR17-49"/>
      </defs>
      <g style="fill:#262626;" transform="translate(114.380266 324.694347)scale(0.11 -0.11)">
       <use transform="scale(0.996264)" xlink:href="#CMR17-49"/>
      </g>
     </g>
    </g>
    <g id="xtick_3">
     <g id="line2d_3">
      <path clip-path="url(#pc6e07dbe3d)" d="M 176.64 307.584 
L 176.64 41.472 
" style="fill:none;stroke:#cccccc;stroke-linecap:round;"/>
     </g>
     <g id="text_3">
      <!-- $2$ -->
      <defs>
       <path d="M 41.703125 15.453125 
L 39.90625 15.453125 
C 38.90625 8.375 38.09375 7.171875 37.703125 6.5625 
C 37.203125 5.765625 30 5.765625 28.59375 5.765625 
L 9.40625 5.765625 
C 13 9.671875 20 16.75 28.5 24.953125 
C 34.59375 30.734375 41.703125 37.53125 41.703125 47.421875 
C 41.703125 59.21875 32.296875 66 21.796875 66 
C 10.796875 66 4.09375 56.3125 4.09375 47.34375 
C 4.09375 43.4375 7 42.9375 8.203125 42.9375 
C 9.203125 42.9375 12.203125 43.546875 12.203125 47.03125 
C 12.203125 50.109375 9.59375 51 8.203125 51 
C 7.59375 51 7 50.90625 6.59375 50.703125 
C 8.5 59.21875 14.296875 63.40625 20.40625 63.40625 
C 29.09375 63.40625 34.796875 56.515625 34.796875 47.421875 
C 34.796875 38.734375 29.703125 31.25 24 24.75 
L 4.09375 2.28125 
L 4.09375 0 
L 39.296875 0 
z
" id="CMR17-50"/>
      </defs>
      <g style="fill:#262626;" transform="translate(173.900266 324.694347)scale(0.11 -0.11)">
       <use transform="scale(0.996264)" xlink:href="#CMR17-50"/>
      </g>
     </g>
    </g>
    <g id="xtick_4">
     <g id="line2d_4">
      <path clip-path="url(#pc6e07dbe3d)" d="M 236.16 307.584 
L 236.16 41.472 
" style="fill:none;stroke:#cccccc;stroke-linecap:round;"/>
     </g>
     <g id="text_4">
      <!-- $3$ -->
      <defs>
       <path d="M 22.09375 33.703125 
C 31 33.703125 34.90625 25.96875 34.90625 17.03125 
C 34.90625 5 28.5 0.390625 22.703125 0.390625 
C 17.40625 0.390625 8.796875 3.03125 6.09375 10.828125 
C 6.59375 10.625 7.09375 10.625 7.59375 10.625 
C 10 10.625 11.796875 12.21875 11.796875 14.8125 
C 11.796875 17.703125 9.59375 19 7.59375 19 
C 5.90625 19 3.296875 18.203125 3.296875 14.46875 
C 3.296875 5.234375 12.296875 -2 22.90625 -2 
C 34 -2 42.5 6.71875 42.5 16.953125 
C 42.5 26.671875 34.5 33.703125 25 34.796875 
C 32.59375 36.375 39.90625 43.0625 39.90625 52.015625 
C 39.90625 59.6875 32 65.296875 23 65.296875 
C 13.90625 65.296875 5.90625 59.828125 5.90625 52.015625 
C 5.90625 48.59375 8.5 48 9.796875 48 
C 11.90625 48 13.703125 49.296875 13.703125 51.890625 
C 13.703125 54.46875 11.90625 55.765625 9.796875 55.765625 
C 9.40625 55.765625 8.90625 55.765625 8.5 55.578125 
C 11.40625 61.859375 19.296875 63 22.796875 63 
C 26.296875 63 32.90625 61.328125 32.90625 51.875 
C 32.90625 49.109375 32.5 44.1875 29.09375 39.84375 
C 26.09375 36 22.703125 36 19.40625 35.6875 
C 18.90625 35.6875 16.59375 35.453125 16.203125 35.453125 
C 15.5 35.359375 15.09375 35.265625 15.09375 34.5 
C 15.09375 33.796875 15.203125 33.703125 17.203125 33.703125 
z
" id="CMR17-51"/>
      </defs>
      <g style="fill:#262626;" transform="translate(233.420266 324.694347)scale(0.11 -0.11)">
       <use transform="scale(0.996264)" xlink:href="#CMR17-51"/>
      </g>
     </g>
    </g>
    <g id="xtick_5">
     <g id="line2d_5">
      <path clip-path="url(#pc6e07dbe3d)" d="M 295.68 307.584 
L 295.68 41.472 
" style="fill:none;stroke:#cccccc;stroke-linecap:round;"/>
     </g>
     <g id="text_5">
      <!-- $4$ -->
      <defs>
       <path d="M 33.59375 64.40625 
C 33.59375 66.5 33.5 66.5 31.703125 66.5 
L 2 19.59375 
L 2 17 
L 27.796875 17 
L 27.796875 7.140625 
C 27.796875 3.5 27.59375 2.5 20.59375 2.5 
L 18.703125 2.5 
L 18.703125 0 
C 21.90625 0 27.296875 0 30.703125 0 
C 34.09375 0 39.5 0 42.703125 0 
L 42.703125 2.5 
L 40.796875 2.5 
C 33.796875 2.5 33.59375 3.5 33.59375 7.140625 
L 33.59375 17 
L 43.796875 17 
L 43.796875 19.59375 
L 33.59375 19.59375 
z
M 28.09375 57.859375 
L 28.09375 19.59375 
L 4 19.59375 
z
" id="CMR17-52"/>
      </defs>
      <g style="fill:#262626;" transform="translate(292.940266 324.694347)scale(0.11 -0.11)">
       <use transform="scale(0.996264)" xlink:href="#CMR17-52"/>
      </g>
     </g>
    </g>
    <g id="xtick_6">
     <g id="line2d_6">
      <path clip-path="url(#pc6e07dbe3d)" d="M 355.2 307.584 
L 355.2 41.472 
" style="fill:none;stroke:#cccccc;stroke-linecap:round;"/>
     </g>
     <g id="text_6">
      <!-- $5$ -->
      <defs>
       <path d="M 11.40625 57.6875 
C 12.40625 57.28125 16.5 56 20.703125 56 
C 30 56 35.09375 61.109375 38 64.0625 
C 38 64.953125 38 65.5 37.40625 65.5 
C 37.296875 65.5 37.09375 65.5 36.296875 65.046875 
C 32.796875 63.40625 28.703125 62.078125 23.703125 62.078125 
C 20.703125 62.078125 16.203125 62.484375 11.296875 64.671875 
C 10.203125 65.171875 10 65.171875 9.90625 65.171875 
C 9.40625 65.171875 9.296875 65.0625 9.296875 63.078125 
L 9.296875 34.421875 
C 9.296875 32.640625 9.296875 32.140625 10.296875 32.140625 
C 10.796875 32.140625 11 32.34375 11.5 33.03125 
C 14.703125 37.515625 19.09375 39.40625 24.09375 39.40625 
C 27.59375 39.40625 35.09375 37.21875 35.09375 20.140625 
C 35.09375 16.953125 35.09375 11.171875 32.09375 6.578125 
C 29.59375 2.484375 25.703125 0.390625 21.40625 0.390625 
C 14.796875 0.390625 8.09375 5 6.296875 12.71875 
C 6.703125 12.609375 7.5 12.421875 7.90625 12.421875 
C 9.203125 12.421875 11.703125 13.125 11.703125 16.21875 
C 11.703125 18.90625 9.796875 20 7.90625 20 
C 5.59375 20 4.09375 18.59375 4.09375 15.796875 
C 4.09375 7.09375 11 -2 21.59375 -2 
C 31.90625 -2 41.703125 6.875 41.703125 19.75 
C 41.703125 31.71875 33.90625 41 24.203125 41 
C 19.09375 41 14.796875 39.109375 11.40625 35.53125 
z
" id="CMR17-53"/>
      </defs>
      <g style="fill:#262626;" transform="translate(352.460266 324.694347)scale(0.11 -0.11)">
       <use transform="scale(0.996264)" xlink:href="#CMR17-53"/>
      </g>
     </g>
    </g>
    <g id="xtick_7">
     <g id="line2d_7">
      <path clip-path="url(#pc6e07dbe3d)" d="M 414.72 307.584 
L 414.72 41.472 
" style="fill:none;stroke:#cccccc;stroke-linecap:round;"/>
     </g>
     <g id="text_7">
      <!-- $6$ -->
      <defs>
       <path d="M 10.59375 34 
C 10.59375 57.65625 21.796875 63 28.296875 63 
C 30.40625 63 35.5 62.640625 37.5 59 
C 35.90625 59 32.90625 59 32.90625 55.515625 
C 32.90625 52.828125 35.09375 51.921875 36.5 51.921875 
C 37.40625 51.921875 40.09375 52.3125 40.09375 55.625 
C 40.09375 61.78125 35.09375 65.296875 28.203125 65.296875 
C 16.296875 65.296875 3.796875 52.96875 3.796875 31 
C 3.796875 3.953125 15.09375 -2 23.09375 -2 
C 32.796875 -2 42 6.671875 42 20.046875 
C 42 32.515625 33.90625 41.59375 23.703125 41.59375 
C 17.59375 41.59375 13.09375 37.609375 10.59375 30.625 
z
M 23.09375 0.390625 
C 10.796875 0.390625 10.796875 18.75 10.796875 22.4375 
C 10.796875 29.625 14.203125 40 23.5 40 
C 25.203125 40 30.09375 40 33.40625 33.125 
C 35.203125 29.21875 35.203125 25.140625 35.203125 20.140625 
C 35.203125 14.75 35.203125 10.78125 33.09375 6.78125 
C 30.90625 2.671875 27.703125 0.390625 23.09375 0.390625 
z
" id="CMR17-54"/>
      </defs>
      <g style="fill:#262626;" transform="translate(411.980266 324.694347)scale(0.11 -0.11)">
       <use transform="scale(0.996264)" xlink:href="#CMR17-54"/>
      </g>
     </g>
    </g>
    <g id="text_8">
     <!-- x -->
     <defs>
      <path d="M 24.796875 22.09375 
L 41.5 42.796875 
L 32.796875 42.796875 
L 21.296875 27.765625 
L 9.40625 42.796875 
L 0.5 42.796875 
L 17.796875 22.09375 
L 0 0 
L 8.796875 0 
L 21.296875 17.515625 
L 34.296875 0 
L 43.09375 0 
z
" id="CMSS17-120"/>
     </defs>
     <g style="fill:#262626;" transform="translate(233.482578 339.127421)scale(0.12 -0.12)">
      <use transform="scale(0.996264)" xlink:href="#CMSS17-120"/>
     </g>
    </g>
   </g>
   <g id="matplotlib.axis_2">
    <g id="ytick_1">
     <g id="line2d_8">
      <path clip-path="url(#pc6e07dbe3d)" d="M 57.6 301.809291 
L 414.72 301.809291 
" style="fill:none;stroke:#cccccc;stroke-linecap:round;"/>
     </g>
     <g id="text_9">
      <!-- $-0.5$ -->
      <defs>
       <path d="M 65.90625 23 
C 67.59375 23 69.40625 23 69.40625 25 
C 69.40625 27 67.59375 27 65.90625 27 
L 11.796875 27 
C 10.09375 27 8.296875 27 8.296875 25 
C 8.296875 23 10.09375 23 11.796875 23 
z
" id="CMSY10-0"/>
       <path d="M 18.40625 4.796875 
C 18.40625 7.6875 16 9.671875 13.59375 9.671875 
C 10.703125 9.671875 8.703125 7.28125 8.703125 4.890625 
C 8.703125 2 11.09375 0 13.5 0 
C 16.40625 0 18.40625 2.390625 18.40625 4.796875 
z
" id="CMMI12-58"/>
      </defs>
      <g style="fill:#262626;" transform="translate(25.573315 305.614464)scale(0.11 -0.11)">
       <use transform="scale(0.996264)" xlink:href="#CMSY10-0"/>
       <use transform="translate(77.487468 0)scale(0.996264)" xlink:href="#CMR17-48"/>
       <use transform="translate(123.177945 0)scale(0.996264)" xlink:href="#CMMI12-58"/>
       <use transform="translate(150.275122 0)scale(0.996264)" xlink:href="#CMR17-53"/>
      </g>
     </g>
    </g>
    <g id="ytick_2">
     <g id="line2d_9">
      <path clip-path="url(#pc6e07dbe3d)" d="M 57.6 272.049291 
L 414.72 272.049291 
" style="fill:none;stroke:#cccccc;stroke-linecap:round;"/>
     </g>
     <g id="text_10">
      <!-- $0.0$ -->
      <g style="fill:#262626;" transform="translate(34.096924 275.854464)scale(0.11 -0.11)">
       <use transform="scale(0.996264)" xlink:href="#CMR17-48"/>
       <use transform="translate(45.690477 0)scale(0.996264)" xlink:href="#CMMI12-58"/>
       <use transform="translate(72.787654 0)scale(0.996264)" xlink:href="#CMR17-48"/>
      </g>
     </g>
    </g>
    <g id="ytick_3">
     <g id="line2d_10">
      <path clip-path="url(#pc6e07dbe3d)" d="M 57.6 242.289291 
L 414.72 242.289291 
" style="fill:none;stroke:#cccccc;stroke-linecap:round;"/>
     </g>
     <g id="text_11">
      <!-- $0.5$ -->
      <g style="fill:#262626;" transform="translate(34.096924 246.094464)scale(0.11 -0.11)">
       <use transform="scale(0.996264)" xlink:href="#CMR17-48"/>
       <use transform="translate(45.690477 0)scale(0.996264)" xlink:href="#CMMI12-58"/>
       <use transform="translate(72.787654 0)scale(0.996264)" xlink:href="#CMR17-53"/>
      </g>
     </g>
    </g>
    <g id="ytick_4">
     <g id="line2d_11">
      <path clip-path="url(#pc6e07dbe3d)" d="M 57.6 212.529291 
L 414.72 212.529291 
" style="fill:none;stroke:#cccccc;stroke-linecap:round;"/>
     </g>
     <g id="text_12">
      <!-- $1.0$ -->
      <g style="fill:#262626;" transform="translate(34.096924 216.334464)scale(0.11 -0.11)">
       <use transform="scale(0.996264)" xlink:href="#CMR17-49"/>
       <use transform="translate(45.690477 0)scale(0.996264)" xlink:href="#CMMI12-58"/>
       <use transform="translate(72.787654 0)scale(0.996264)" xlink:href="#CMR17-48"/>
      </g>
     </g>
    </g>
    <g id="ytick_5">
     <g id="line2d_12">
      <path clip-path="url(#pc6e07dbe3d)" d="M 57.6 182.769291 
L 414.72 182.769291 
" style="fill:none;stroke:#cccccc;stroke-linecap:round;"/>
     </g>
     <g id="text_13">
      <!-- $1.5$ -->
      <g style="fill:#262626;" transform="translate(34.096924 186.574464)scale(0.11 -0.11)">
       <use transform="scale(0.996264)" xlink:href="#CMR17-49"/>
       <use transform="translate(45.690477 0)scale(0.996264)" xlink:href="#CMMI12-58"/>
       <use transform="translate(72.787654 0)scale(0.996264)" xlink:href="#CMR17-53"/>
      </g>
     </g>
    </g>
    <g id="ytick_6">
     <g id="line2d_13">
      <path clip-path="url(#pc6e07dbe3d)" d="M 57.6 153.009291 
L 414.72 153.009291 
" style="fill:none;stroke:#cccccc;stroke-linecap:round;"/>
     </g>
     <g id="text_14">
      <!-- $2.0$ -->
      <g style="fill:#262626;" transform="translate(34.096924 156.814464)scale(0.11 -0.11)">
       <use transform="scale(0.996264)" xlink:href="#CMR17-50"/>
       <use transform="translate(45.690477 0)scale(0.996264)" xlink:href="#CMMI12-58"/>
       <use transform="translate(72.787654 0)scale(0.996264)" xlink:href="#CMR17-48"/>
      </g>
     </g>
    </g>
    <g id="ytick_7">
     <g id="line2d_14">
      <path clip-path="url(#pc6e07dbe3d)" d="M 57.6 123.249291 
L 414.72 123.249291 
" style="fill:none;stroke:#cccccc;stroke-linecap:round;"/>
     </g>
     <g id="text_15">
      <!-- $2.5$ -->
      <g style="fill:#262626;" transform="translate(34.096924 127.054464)scale(0.11 -0.11)">
       <use transform="scale(0.996264)" xlink:href="#CMR17-50"/>
       <use transform="translate(45.690477 0)scale(0.996264)" xlink:href="#CMMI12-58"/>
       <use transform="translate(72.787654 0)scale(0.996264)" xlink:href="#CMR17-53"/>
      </g>
     </g>
    </g>
    <g id="ytick_8">
     <g id="line2d_15">
      <path clip-path="url(#pc6e07dbe3d)" d="M 57.6 93.489291 
L 414.72 93.489291 
" style="fill:none;stroke:#cccccc;stroke-linecap:round;"/>
     </g>
     <g id="text_16">
      <!-- $3.0$ -->
      <g style="fill:#262626;" transform="translate(34.096924 97.294464)scale(0.11 -0.11)">
       <use transform="scale(0.996264)" xlink:href="#CMR17-51"/>
       <use transform="translate(45.690477 0)scale(0.996264)" xlink:href="#CMMI12-58"/>
       <use transform="translate(72.787654 0)scale(0.996264)" xlink:href="#CMR17-48"/>
      </g>
     </g>
    </g>
    <g id="ytick_9">
     <g id="line2d_16">
      <path clip-path="url(#pc6e07dbe3d)" d="M 57.6 63.729291 
L 414.72 63.729291 
" style="fill:none;stroke:#cccccc;stroke-linecap:round;"/>
     </g>
     <g id="text_17">
      <!-- $3.5$ -->
      <g style="fill:#262626;" transform="translate(34.096924 67.534464)scale(0.11 -0.11)">
       <use transform="scale(0.996264)" xlink:href="#CMR17-51"/>
       <use transform="translate(45.690477 0)scale(0.996264)" xlink:href="#CMMI12-58"/>
       <use transform="translate(72.787654 0)scale(0.996264)" xlink:href="#CMR17-53"/>
      </g>
     </g>
    </g>
    <g id="text_18">
     <!-- y -->
     <defs>
      <path d="M 41.796875 43 
L 34 43 
C 25.5 20.21875 22.59375 10.96875 22.40625 5.984375 
L 22.296875 5.984375 
C 22 10.875 17.59375 22.8125 14.09375 31.359375 
L 9.40625 43 
L 1.296875 43 
L 19 0.203125 
C 17.90625 -2.78125 16.296875 -7.265625 15.796875 -8.265625 
C 13.59375 -13.828125 12.09375 -13.828125 10.5 -13.828125 
C 10.09375 -13.828125 6.90625 -13.828125 3.296875 -12.640625 
L 3.90625 -19.203125 
C 6.40625 -19.703125 8.90625 -20 10.703125 -20 
C 13.203125 -20 18.203125 -20 22.796875 -7.765625 
z
" id="CMSS17-121"/>
     </defs>
     <g style="fill:#262626;" transform="translate(19.248719 177.205422)rotate(-90)scale(0.12 -0.12)">
      <use transform="scale(0.996264)" xlink:href="#CMSS17-121"/>
     </g>
    </g>
   </g>
   <g id="PathCollection_1">
    <defs>
     <path d="M -3 3 
L 3 -3 
M -3 -3 
L 3 3 
" id="m85d4c4590e" style="stroke:#55a868;stroke-width:1.5;"/>
    </defs>
    <g clip-path="url(#pc6e07dbe3d)">
     <use style="fill:#55a868;stroke:#55a868;stroke-width:1.5;" x="145.572289" xlink:href="#m85d4c4590e" y="155.592152"/>
     <use style="fill:#55a868;stroke:#55a868;stroke-width:1.5;" x="191.455049" xlink:href="#m85d4c4590e" y="189.767661"/>
     <use style="fill:#55a868;stroke:#55a868;stroke-width:1.5;" x="140.346071" xlink:href="#m85d4c4590e" y="151.109654"/>
     <use style="fill:#55a868;stroke:#55a868;stroke-width:1.5;" x="166.450905" xlink:href="#m85d4c4590e" y="142.064187"/>
     <use style="fill:#55a868;stroke:#55a868;stroke-width:1.5;" x="161.046416" xlink:href="#m85d4c4590e" y="124.986687"/>
     <use style="fill:#55a868;stroke:#55a868;stroke-width:1.5;" x="153.278602" xlink:href="#m85d4c4590e" y="175.18663"/>
     <use style="fill:#55a868;stroke:#55a868;stroke-width:1.5;" x="228.897458" xlink:href="#m85d4c4590e" y="173.898"/>
     <use style="fill:#55a868;stroke:#55a868;stroke-width:1.5;" x="219.869906" xlink:href="#m85d4c4590e" y="114.791756"/>
     <use style="fill:#55a868;stroke:#55a868;stroke-width:1.5;" x="167.178356" xlink:href="#m85d4c4590e" y="160.659415"/>
     <use style="fill:#55a868;stroke:#55a868;stroke-width:1.5;" x="174.310282" xlink:href="#m85d4c4590e" y="187.316772"/>
     <use style="fill:#55a868;stroke:#55a868;stroke-width:1.5;" x="178.790228" xlink:href="#m85d4c4590e" y="199.148562"/>
     <use style="fill:#55a868;stroke:#55a868;stroke-width:1.5;" x="166.040177" xlink:href="#m85d4c4590e" y="163.044624"/>
     <use style="fill:#55a868;stroke:#55a868;stroke-width:1.5;" x="117.960865" xlink:href="#m85d4c4590e" y="136.576685"/>
     <use style="fill:#55a868;stroke:#55a868;stroke-width:1.5;" x="182.33877" xlink:href="#m85d4c4590e" y="141.770854"/>
     <use style="fill:#55a868;stroke:#55a868;stroke-width:1.5;" x="201.415497" xlink:href="#m85d4c4590e" y="185.035449"/>
     <use style="fill:#55a868;stroke:#55a868;stroke-width:1.5;" x="150.528392" xlink:href="#m85d4c4590e" y="165.790102"/>
     <use style="fill:#55a868;stroke:#55a868;stroke-width:1.5;" x="159.45901" xlink:href="#m85d4c4590e" y="169.118309"/>
     <use style="fill:#55a868;stroke:#55a868;stroke-width:1.5;" x="180.811305" xlink:href="#m85d4c4590e" y="116.760774"/>
     <use style="fill:#55a868;stroke:#55a868;stroke-width:1.5;" x="165.234265" xlink:href="#m85d4c4590e" y="132.592492"/>
     <use style="fill:#55a868;stroke:#55a868;stroke-width:1.5;" x="155.967019" xlink:href="#m85d4c4590e" y="151.505823"/>
     <use style="fill:#55a868;stroke:#55a868;stroke-width:1.5;" x="137.653957" xlink:href="#m85d4c4590e" y="138.942244"/>
     <use style="fill:#55a868;stroke:#55a868;stroke-width:1.5;" x="182.043302" xlink:href="#m85d4c4590e" y="193.185745"/>
     <use style="fill:#55a868;stroke:#55a868;stroke-width:1.5;" x="132.321846" xlink:href="#m85d4c4590e" y="159.4204"/>
     <use style="fill:#55a868;stroke:#55a868;stroke-width:1.5;" x="175.626463" xlink:href="#m85d4c4590e" y="144.904352"/>
     <use style="fill:#55a868;stroke:#55a868;stroke-width:1.5;" x="172.357028" xlink:href="#m85d4c4590e" y="201.401123"/>
     <use style="fill:#55a868;stroke:#55a868;stroke-width:1.5;" x="155.367996" xlink:href="#m85d4c4590e" y="131.586291"/>
     <use style="fill:#55a868;stroke:#55a868;stroke-width:1.5;" x="160.646113" xlink:href="#m85d4c4590e" y="141.349955"/>
     <use style="fill:#55a868;stroke:#55a868;stroke-width:1.5;" x="193.950897" xlink:href="#m85d4c4590e" y="118.986923"/>
     <use style="fill:#55a868;stroke:#55a868;stroke-width:1.5;" x="114.020507" xlink:href="#m85d4c4590e" y="121.278095"/>
     <use style="fill:#55a868;stroke:#55a868;stroke-width:1.5;" x="180.701329" xlink:href="#m85d4c4590e" y="128.809367"/>
     <use style="fill:#55a868;stroke:#55a868;stroke-width:1.5;" x="171.10418" xlink:href="#m85d4c4590e" y="162.423849"/>
     <use style="fill:#55a868;stroke:#55a868;stroke-width:1.5;" x="123.37222" xlink:href="#m85d4c4590e" y="187.870697"/>
     <use style="fill:#55a868;stroke:#55a868;stroke-width:1.5;" x="185.283322" xlink:href="#m85d4c4590e" y="151.701759"/>
     <use style="fill:#55a868;stroke:#55a868;stroke-width:1.5;" x="132.947059" xlink:href="#m85d4c4590e" y="185.964561"/>
     <use style="fill:#55a868;stroke:#55a868;stroke-width:1.5;" x="133.372503" xlink:href="#m85d4c4590e" y="112.293603"/>
     <use style="fill:#55a868;stroke:#55a868;stroke-width:1.5;" x="182.013787" xlink:href="#m85d4c4590e" y="159.591245"/>
     <use style="fill:#55a868;stroke:#55a868;stroke-width:1.5;" x="184.367522" xlink:href="#m85d4c4590e" y="135.88593"/>
     <use style="fill:#55a868;stroke:#55a868;stroke-width:1.5;" x="222.223241" xlink:href="#m85d4c4590e" y="173.422882"/>
     <use style="fill:#55a868;stroke:#55a868;stroke-width:1.5;" x="148.905407" xlink:href="#m85d4c4590e" y="174.843783"/>
     <use style="fill:#55a868;stroke:#55a868;stroke-width:1.5;" x="137.550784" xlink:href="#m85d4c4590e" y="173.130117"/>
     <use style="fill:#55a868;stroke:#55a868;stroke-width:1.5;" x="226.37965" xlink:href="#m85d4c4590e" y="144.84227"/>
     <use style="fill:#55a868;stroke:#55a868;stroke-width:1.5;" x="106.689045" xlink:href="#m85d4c4590e" y="186.958944"/>
     <use style="fill:#55a868;stroke:#55a868;stroke-width:1.5;" x="226.938062" xlink:href="#m85d4c4590e" y="161.231873"/>
     <use style="fill:#55a868;stroke:#55a868;stroke-width:1.5;" x="175.511334" xlink:href="#m85d4c4590e" y="116.634833"/>
     <use style="fill:#55a868;stroke:#55a868;stroke-width:1.5;" x="102.58998" xlink:href="#m85d4c4590e" y="161.582927"/>
     <use style="fill:#55a868;stroke:#55a868;stroke-width:1.5;" x="188.025366" xlink:href="#m85d4c4590e" y="177.280607"/>
     <use style="fill:#55a868;stroke:#55a868;stroke-width:1.5;" x="147.425841" xlink:href="#m85d4c4590e" y="125.391149"/>
     <use style="fill:#55a868;stroke:#55a868;stroke-width:1.5;" x="139.260063" xlink:href="#m85d4c4590e" y="132.721225"/>
     <use style="fill:#55a868;stroke:#55a868;stroke-width:1.5;" x="150.571518" xlink:href="#m85d4c4590e" y="163.84304"/>
     <use style="fill:#55a868;stroke:#55a868;stroke-width:1.5;" x="198.557829" xlink:href="#m85d4c4590e" y="111.118479"/>
     <use style="fill:#55a868;stroke:#55a868;stroke-width:1.5;" x="200.088747" xlink:href="#m85d4c4590e" y="156.992027"/>
     <use style="fill:#55a868;stroke:#55a868;stroke-width:1.5;" x="183.402307" xlink:href="#m85d4c4590e" y="174.99812"/>
     <use style="fill:#55a868;stroke:#55a868;stroke-width:1.5;" x="145.550282" xlink:href="#m85d4c4590e" y="143.221605"/>
     <use style="fill:#55a868;stroke:#55a868;stroke-width:1.5;" x="161.058612" xlink:href="#m85d4c4590e" y="186.7556"/>
     <use style="fill:#55a868;stroke:#55a868;stroke-width:1.5;" x="148.952377" xlink:href="#m85d4c4590e" y="117.465737"/>
     <use style="fill:#55a868;stroke:#55a868;stroke-width:1.5;" x="194.243408" xlink:href="#m85d4c4590e" y="147.675873"/>
     <use style="fill:#55a868;stroke:#55a868;stroke-width:1.5;" x="195.619106" xlink:href="#m85d4c4590e" y="145.090111"/>
     <use style="fill:#55a868;stroke:#55a868;stroke-width:1.5;" x="185.669415" xlink:href="#m85d4c4590e" y="208.155093"/>
     <use style="fill:#55a868;stroke:#55a868;stroke-width:1.5;" x="213.156544" xlink:href="#m85d4c4590e" y="135.222024"/>
     <use style="fill:#55a868;stroke:#55a868;stroke-width:1.5;" x="173.501714" xlink:href="#m85d4c4590e" y="186.683585"/>
     <use style="fill:#55a868;stroke:#55a868;stroke-width:1.5;" x="155.996426" xlink:href="#m85d4c4590e" y="166.124223"/>
     <use style="fill:#55a868;stroke:#55a868;stroke-width:1.5;" x="185.018363" xlink:href="#m85d4c4590e" y="143.190908"/>
     <use style="fill:#55a868;stroke:#55a868;stroke-width:1.5;" x="166.953138" xlink:href="#m85d4c4590e" y="157.874201"/>
     <use style="fill:#55a868;stroke:#55a868;stroke-width:1.5;" x="209.37328" xlink:href="#m85d4c4590e" y="156.431572"/>
     <use style="fill:#55a868;stroke:#55a868;stroke-width:1.5;" x="169.032536" xlink:href="#m85d4c4590e" y="151.00371"/>
     <use style="fill:#55a868;stroke:#55a868;stroke-width:1.5;" x="137.332237" xlink:href="#m85d4c4590e" y="168.96337"/>
     <use style="fill:#55a868;stroke:#55a868;stroke-width:1.5;" x="156.510606" xlink:href="#m85d4c4590e" y="169.210305"/>
     <use style="fill:#55a868;stroke:#55a868;stroke-width:1.5;" x="193.051414" xlink:href="#m85d4c4590e" y="144.246167"/>
     <use style="fill:#55a868;stroke:#55a868;stroke-width:1.5;" x="217.568764" xlink:href="#m85d4c4590e" y="105.303637"/>
     <use style="fill:#55a868;stroke:#55a868;stroke-width:1.5;" x="230.340321" xlink:href="#m85d4c4590e" y="109.872479"/>
     <use style="fill:#55a868;stroke:#55a868;stroke-width:1.5;" x="162.16276" xlink:href="#m85d4c4590e" y="145.476785"/>
     <use style="fill:#55a868;stroke:#55a868;stroke-width:1.5;" x="238.269573" xlink:href="#m85d4c4590e" y="146.054108"/>
     <use style="fill:#55a868;stroke:#55a868;stroke-width:1.5;" x="159.292619" xlink:href="#m85d4c4590e" y="126.876298"/>
     <use style="fill:#55a868;stroke:#55a868;stroke-width:1.5;" x="157.752707" xlink:href="#m85d4c4590e" y="111.836277"/>
     <use style="fill:#55a868;stroke:#55a868;stroke-width:1.5;" x="189.988032" xlink:href="#m85d4c4590e" y="188.123125"/>
     <use style="fill:#55a868;stroke:#55a868;stroke-width:1.5;" x="164.779775" xlink:href="#m85d4c4590e" y="187.172835"/>
     <use style="fill:#55a868;stroke:#55a868;stroke-width:1.5;" x="178.657007" xlink:href="#m85d4c4590e" y="163.91216"/>
     <use style="fill:#55a868;stroke:#55a868;stroke-width:1.5;" x="150.925227" xlink:href="#m85d4c4590e" y="142.434464"/>
     <use style="fill:#55a868;stroke:#55a868;stroke-width:1.5;" x="195.002747" xlink:href="#m85d4c4590e" y="103.110349"/>
     <use style="fill:#55a868;stroke:#55a868;stroke-width:1.5;" x="195.870193" xlink:href="#m85d4c4590e" y="187.043225"/>
     <use style="fill:#55a868;stroke:#55a868;stroke-width:1.5;" x="199.91933" xlink:href="#m85d4c4590e" y="155.382305"/>
     <use style="fill:#55a868;stroke:#55a868;stroke-width:1.5;" x="189.034626" xlink:href="#m85d4c4590e" y="155.052486"/>
     <use style="fill:#55a868;stroke:#55a868;stroke-width:1.5;" x="231.307258" xlink:href="#m85d4c4590e" y="155.310272"/>
     <use style="fill:#55a868;stroke:#55a868;stroke-width:1.5;" x="202.067084" xlink:href="#m85d4c4590e" y="136.653281"/>
     <use style="fill:#55a868;stroke:#55a868;stroke-width:1.5;" x="199.872474" xlink:href="#m85d4c4590e" y="152.007402"/>
     <use style="fill:#55a868;stroke:#55a868;stroke-width:1.5;" x="204.370198" xlink:href="#m85d4c4590e" y="197.5565"/>
     <use style="fill:#55a868;stroke:#55a868;stroke-width:1.5;" x="185.612392" xlink:href="#m85d4c4590e" y="200.987431"/>
     <use style="fill:#55a868;stroke:#55a868;stroke-width:1.5;" x="168.292143" xlink:href="#m85d4c4590e" y="156.80615"/>
     <use style="fill:#55a868;stroke:#55a868;stroke-width:1.5;" x="197.295202" xlink:href="#m85d4c4590e" y="114.363617"/>
     <use style="fill:#55a868;stroke:#55a868;stroke-width:1.5;" x="159.469457" xlink:href="#m85d4c4590e" y="103.74031"/>
     <use style="fill:#55a868;stroke:#55a868;stroke-width:1.5;" x="175.493509" xlink:href="#m85d4c4590e" y="152.835503"/>
     <use style="fill:#55a868;stroke:#55a868;stroke-width:1.5;" x="187.420698" xlink:href="#m85d4c4590e" y="159.736602"/>
     <use style="fill:#55a868;stroke:#55a868;stroke-width:1.5;" x="192.116829" xlink:href="#m85d4c4590e" y="111.08003"/>
     <use style="fill:#55a868;stroke:#55a868;stroke-width:1.5;" x="191.237182" xlink:href="#m85d4c4590e" y="144.426409"/>
     <use style="fill:#55a868;stroke:#55a868;stroke-width:1.5;" x="145.248888" xlink:href="#m85d4c4590e" y="192.597001"/>
     <use style="fill:#55a868;stroke:#55a868;stroke-width:1.5;" x="193.911508" xlink:href="#m85d4c4590e" y="203.86353"/>
     <use style="fill:#55a868;stroke:#55a868;stroke-width:1.5;" x="149.358072" xlink:href="#m85d4c4590e" y="195.696426"/>
     <use style="fill:#55a868;stroke:#55a868;stroke-width:1.5;" x="173.805431" xlink:href="#m85d4c4590e" y="156.080936"/>
     <use style="fill:#55a868;stroke:#55a868;stroke-width:1.5;" x="141.008077" xlink:href="#m85d4c4590e" y="148.718396"/>
     <use style="fill:#55a868;stroke:#55a868;stroke-width:1.5;" x="165.049901" xlink:href="#m85d4c4590e" y="209.933502"/>
    </g>
   </g>
   <g id="PathCollection_2">
    <defs>
     <path d="M -3 3 
L 3 -3 
M -3 -3 
L 3 3 
" id="m8da2ef7c9b" style="stroke:#4c72b0;stroke-width:1.5;"/>
    </defs>
    <g clip-path="url(#pc6e07dbe3d)">
     <use style="fill:#4c72b0;stroke:#4c72b0;stroke-width:1.5;" x="326.381585" xlink:href="#m8da2ef7c9b" y="87.743802"/>
     <use style="fill:#4c72b0;stroke:#4c72b0;stroke-width:1.5;" x="336.091391" xlink:href="#m8da2ef7c9b" y="165.482995"/>
     <use style="fill:#4c72b0;stroke:#4c72b0;stroke-width:1.5;" x="305.785541" xlink:href="#m8da2ef7c9b" y="174.010438"/>
     <use style="fill:#4c72b0;stroke:#4c72b0;stroke-width:1.5;" x="258.295931" xlink:href="#m8da2ef7c9b" y="148.033879"/>
     <use style="fill:#4c72b0;stroke:#4c72b0;stroke-width:1.5;" x="298.033688" xlink:href="#m8da2ef7c9b" y="130.932777"/>
     <use style="fill:#4c72b0;stroke:#4c72b0;stroke-width:1.5;" x="311.842811" xlink:href="#m8da2ef7c9b" y="180.47594"/>
     <use style="fill:#4c72b0;stroke:#4c72b0;stroke-width:1.5;" x="293.39538" xlink:href="#m8da2ef7c9b" y="211.751493"/>
     <use style="fill:#4c72b0;stroke:#4c72b0;stroke-width:1.5;" x="316.058985" xlink:href="#m8da2ef7c9b" y="133.582291"/>
     <use style="fill:#4c72b0;stroke:#4c72b0;stroke-width:1.5;" x="274.343928" xlink:href="#m8da2ef7c9b" y="96.308664"/>
     <use style="fill:#4c72b0;stroke:#4c72b0;stroke-width:1.5;" x="266.661624" xlink:href="#m8da2ef7c9b" y="116.353418"/>
     <use style="fill:#4c72b0;stroke:#4c72b0;stroke-width:1.5;" x="291.876562" xlink:href="#m8da2ef7c9b" y="179.341211"/>
     <use style="fill:#4c72b0;stroke:#4c72b0;stroke-width:1.5;" x="277.037828" xlink:href="#m8da2ef7c9b" y="151.048099"/>
     <use style="fill:#4c72b0;stroke:#4c72b0;stroke-width:1.5;" x="281.959845" xlink:href="#m8da2ef7c9b" y="173.905453"/>
     <use style="fill:#4c72b0;stroke:#4c72b0;stroke-width:1.5;" x="314.088139" xlink:href="#m8da2ef7c9b" y="174.098896"/>
     <use style="fill:#4c72b0;stroke:#4c72b0;stroke-width:1.5;" x="312.560067" xlink:href="#m8da2ef7c9b" y="155.97226"/>
     <use style="fill:#4c72b0;stroke:#4c72b0;stroke-width:1.5;" x="329.648679" xlink:href="#m8da2ef7c9b" y="140.829363"/>
     <use style="fill:#4c72b0;stroke:#4c72b0;stroke-width:1.5;" x="287.250906" xlink:href="#m8da2ef7c9b" y="159.483908"/>
     <use style="fill:#4c72b0;stroke:#4c72b0;stroke-width:1.5;" x="279.874698" xlink:href="#m8da2ef7c9b" y="180.799049"/>
     <use style="fill:#4c72b0;stroke:#4c72b0;stroke-width:1.5;" x="316.668212" xlink:href="#m8da2ef7c9b" y="145.122889"/>
     <use style="fill:#4c72b0;stroke:#4c72b0;stroke-width:1.5;" x="272.817865" xlink:href="#m8da2ef7c9b" y="152.248231"/>
     <use style="fill:#4c72b0;stroke:#4c72b0;stroke-width:1.5;" x="359.165576" xlink:href="#m8da2ef7c9b" y="172.200682"/>
     <use style="fill:#4c72b0;stroke:#4c72b0;stroke-width:1.5;" x="274.944014" xlink:href="#m8da2ef7c9b" y="179.329626"/>
     <use style="fill:#4c72b0;stroke:#4c72b0;stroke-width:1.5;" x="275.415571" xlink:href="#m8da2ef7c9b" y="98.068436"/>
     <use style="fill:#4c72b0;stroke:#4c72b0;stroke-width:1.5;" x="296.550639" xlink:href="#m8da2ef7c9b" y="151.350509"/>
     <use style="fill:#4c72b0;stroke:#4c72b0;stroke-width:1.5;" x="327.331054" xlink:href="#m8da2ef7c9b" y="117.783814"/>
     <use style="fill:#4c72b0;stroke:#4c72b0;stroke-width:1.5;" x="282.497913" xlink:href="#m8da2ef7c9b" y="176.04506"/>
     <use style="fill:#4c72b0;stroke:#4c72b0;stroke-width:1.5;" x="299.351137" xlink:href="#m8da2ef7c9b" y="157.838215"/>
     <use style="fill:#4c72b0;stroke:#4c72b0;stroke-width:1.5;" x="269.495228" xlink:href="#m8da2ef7c9b" y="169.323748"/>
     <use style="fill:#4c72b0;stroke:#4c72b0;stroke-width:1.5;" x="308.901634" xlink:href="#m8da2ef7c9b" y="205.018663"/>
     <use style="fill:#4c72b0;stroke:#4c72b0;stroke-width:1.5;" x="272.157193" xlink:href="#m8da2ef7c9b" y="191.332714"/>
     <use style="fill:#4c72b0;stroke:#4c72b0;stroke-width:1.5;" x="300.061866" xlink:href="#m8da2ef7c9b" y="151.081491"/>
     <use style="fill:#4c72b0;stroke:#4c72b0;stroke-width:1.5;" x="323.53104" xlink:href="#m8da2ef7c9b" y="123.774886"/>
     <use style="fill:#4c72b0;stroke:#4c72b0;stroke-width:1.5;" x="295.092514" xlink:href="#m8da2ef7c9b" y="154.844241"/>
     <use style="fill:#4c72b0;stroke:#4c72b0;stroke-width:1.5;" x="308.725892" xlink:href="#m8da2ef7c9b" y="170.6169"/>
     <use style="fill:#4c72b0;stroke:#4c72b0;stroke-width:1.5;" x="303.214471" xlink:href="#m8da2ef7c9b" y="173.286694"/>
     <use style="fill:#4c72b0;stroke:#4c72b0;stroke-width:1.5;" x="287.635659" xlink:href="#m8da2ef7c9b" y="128.356112"/>
     <use style="fill:#4c72b0;stroke:#4c72b0;stroke-width:1.5;" x="226.461803" xlink:href="#m8da2ef7c9b" y="146.721127"/>
     <use style="fill:#4c72b0;stroke:#4c72b0;stroke-width:1.5;" x="326.599252" xlink:href="#m8da2ef7c9b" y="175.427301"/>
     <use style="fill:#4c72b0;stroke:#4c72b0;stroke-width:1.5;" x="292.76697" xlink:href="#m8da2ef7c9b" y="185.761276"/>
     <use style="fill:#4c72b0;stroke:#4c72b0;stroke-width:1.5;" x="284.68815" xlink:href="#m8da2ef7c9b" y="105.710863"/>
     <use style="fill:#4c72b0;stroke:#4c72b0;stroke-width:1.5;" x="303.029151" xlink:href="#m8da2ef7c9b" y="131.058003"/>
     <use style="fill:#4c72b0;stroke:#4c72b0;stroke-width:1.5;" x="319.632433" xlink:href="#m8da2ef7c9b" y="171.162658"/>
     <use style="fill:#4c72b0;stroke:#4c72b0;stroke-width:1.5;" x="279.912582" xlink:href="#m8da2ef7c9b" y="142.02522"/>
     <use style="fill:#4c72b0;stroke:#4c72b0;stroke-width:1.5;" x="276.146389" xlink:href="#m8da2ef7c9b" y="149.907721"/>
     <use style="fill:#4c72b0;stroke:#4c72b0;stroke-width:1.5;" x="375.474528" xlink:href="#m8da2ef7c9b" y="127.282623"/>
     <use style="fill:#4c72b0;stroke:#4c72b0;stroke-width:1.5;" x="243.660384" xlink:href="#m8da2ef7c9b" y="111.732218"/>
     <use style="fill:#4c72b0;stroke:#4c72b0;stroke-width:1.5;" x="306.626904" xlink:href="#m8da2ef7c9b" y="154.635294"/>
     <use style="fill:#4c72b0;stroke:#4c72b0;stroke-width:1.5;" x="344.722033" xlink:href="#m8da2ef7c9b" y="128.363705"/>
     <use style="fill:#4c72b0;stroke:#4c72b0;stroke-width:1.5;" x="276.738675" xlink:href="#m8da2ef7c9b" y="182.46919"/>
     <use style="fill:#4c72b0;stroke:#4c72b0;stroke-width:1.5;" x="345.10608" xlink:href="#m8da2ef7c9b" y="169.638537"/>
     <use style="fill:#4c72b0;stroke:#4c72b0;stroke-width:1.5;" x="262.778213" xlink:href="#m8da2ef7c9b" y="174.206234"/>
     <use style="fill:#4c72b0;stroke:#4c72b0;stroke-width:1.5;" x="317.426514" xlink:href="#m8da2ef7c9b" y="168.851579"/>
     <use style="fill:#4c72b0;stroke:#4c72b0;stroke-width:1.5;" x="321.013942" xlink:href="#m8da2ef7c9b" y="140.049767"/>
     <use style="fill:#4c72b0;stroke:#4c72b0;stroke-width:1.5;" x="258.904832" xlink:href="#m8da2ef7c9b" y="111.297711"/>
     <use style="fill:#4c72b0;stroke:#4c72b0;stroke-width:1.5;" x="269.178921" xlink:href="#m8da2ef7c9b" y="103.854235"/>
     <use style="fill:#4c72b0;stroke:#4c72b0;stroke-width:1.5;" x="267.567343" xlink:href="#m8da2ef7c9b" y="142.855582"/>
     <use style="fill:#4c72b0;stroke:#4c72b0;stroke-width:1.5;" x="258.525858" xlink:href="#m8da2ef7c9b" y="151.145092"/>
     <use style="fill:#4c72b0;stroke:#4c72b0;stroke-width:1.5;" x="321.261987" xlink:href="#m8da2ef7c9b" y="144.502054"/>
     <use style="fill:#4c72b0;stroke:#4c72b0;stroke-width:1.5;" x="293.902315" xlink:href="#m8da2ef7c9b" y="116.866542"/>
     <use style="fill:#4c72b0;stroke:#4c72b0;stroke-width:1.5;" x="351.918833" xlink:href="#m8da2ef7c9b" y="111.471857"/>
     <use style="fill:#4c72b0;stroke:#4c72b0;stroke-width:1.5;" x="273.396623" xlink:href="#m8da2ef7c9b" y="141.398982"/>
     <use style="fill:#4c72b0;stroke:#4c72b0;stroke-width:1.5;" x="336.499496" xlink:href="#m8da2ef7c9b" y="143.236263"/>
     <use style="fill:#4c72b0;stroke:#4c72b0;stroke-width:1.5;" x="232.517942" xlink:href="#m8da2ef7c9b" y="132.922234"/>
     <use style="fill:#4c72b0;stroke:#4c72b0;stroke-width:1.5;" x="304.457578" xlink:href="#m8da2ef7c9b" y="179.618125"/>
     <use style="fill:#4c72b0;stroke:#4c72b0;stroke-width:1.5;" x="293.068781" xlink:href="#m8da2ef7c9b" y="140.710479"/>
     <use style="fill:#4c72b0;stroke:#4c72b0;stroke-width:1.5;" x="298.995865" xlink:href="#m8da2ef7c9b" y="145.331043"/>
     <use style="fill:#4c72b0;stroke:#4c72b0;stroke-width:1.5;" x="315.71067" xlink:href="#m8da2ef7c9b" y="156.607671"/>
     <use style="fill:#4c72b0;stroke:#4c72b0;stroke-width:1.5;" x="299.567076" xlink:href="#m8da2ef7c9b" y="178.122629"/>
     <use style="fill:#4c72b0;stroke:#4c72b0;stroke-width:1.5;" x="250.466356" xlink:href="#m8da2ef7c9b" y="165.144478"/>
     <use style="fill:#4c72b0;stroke:#4c72b0;stroke-width:1.5;" x="274.722637" xlink:href="#m8da2ef7c9b" y="96.741101"/>
     <use style="fill:#4c72b0;stroke:#4c72b0;stroke-width:1.5;" x="303.408603" xlink:href="#m8da2ef7c9b" y="155.234085"/>
     <use style="fill:#4c72b0;stroke:#4c72b0;stroke-width:1.5;" x="291.226976" xlink:href="#m8da2ef7c9b" y="201.378391"/>
     <use style="fill:#4c72b0;stroke:#4c72b0;stroke-width:1.5;" x="286.921263" xlink:href="#m8da2ef7c9b" y="139.261815"/>
     <use style="fill:#4c72b0;stroke:#4c72b0;stroke-width:1.5;" x="281.707716" xlink:href="#m8da2ef7c9b" y="175.122291"/>
     <use style="fill:#4c72b0;stroke:#4c72b0;stroke-width:1.5;" x="301.458045" xlink:href="#m8da2ef7c9b" y="156.361653"/>
     <use style="fill:#4c72b0;stroke:#4c72b0;stroke-width:1.5;" x="268.591327" xlink:href="#m8da2ef7c9b" y="186.30074"/>
     <use style="fill:#4c72b0;stroke:#4c72b0;stroke-width:1.5;" x="297.44749" xlink:href="#m8da2ef7c9b" y="170.009724"/>
     <use style="fill:#4c72b0;stroke:#4c72b0;stroke-width:1.5;" x="303.569281" xlink:href="#m8da2ef7c9b" y="103.466766"/>
     <use style="fill:#4c72b0;stroke:#4c72b0;stroke-width:1.5;" x="270.727196" xlink:href="#m8da2ef7c9b" y="154.837733"/>
     <use style="fill:#4c72b0;stroke:#4c72b0;stroke-width:1.5;" x="280.310405" xlink:href="#m8da2ef7c9b" y="91.58931"/>
     <use style="fill:#4c72b0;stroke:#4c72b0;stroke-width:1.5;" x="314.383669" xlink:href="#m8da2ef7c9b" y="179.481134"/>
     <use style="fill:#4c72b0;stroke:#4c72b0;stroke-width:1.5;" x="283.029645" xlink:href="#m8da2ef7c9b" y="116.943537"/>
     <use style="fill:#4c72b0;stroke:#4c72b0;stroke-width:1.5;" x="309.673067" xlink:href="#m8da2ef7c9b" y="118.595084"/>
     <use style="fill:#4c72b0;stroke:#4c72b0;stroke-width:1.5;" x="240.450552" xlink:href="#m8da2ef7c9b" y="164.477047"/>
     <use style="fill:#4c72b0;stroke:#4c72b0;stroke-width:1.5;" x="321.063848" xlink:href="#m8da2ef7c9b" y="164.071466"/>
     <use style="fill:#4c72b0;stroke:#4c72b0;stroke-width:1.5;" x="293.054353" xlink:href="#m8da2ef7c9b" y="189.504595"/>
     <use style="fill:#4c72b0;stroke:#4c72b0;stroke-width:1.5;" x="340.176688" xlink:href="#m8da2ef7c9b" y="199.503803"/>
     <use style="fill:#4c72b0;stroke:#4c72b0;stroke-width:1.5;" x="293.897311" xlink:href="#m8da2ef7c9b" y="105.142958"/>
     <use style="fill:#4c72b0;stroke:#4c72b0;stroke-width:1.5;" x="263.383962" xlink:href="#m8da2ef7c9b" y="154.727818"/>
     <use style="fill:#4c72b0;stroke:#4c72b0;stroke-width:1.5;" x="278.594273" xlink:href="#m8da2ef7c9b" y="164.684942"/>
     <use style="fill:#4c72b0;stroke:#4c72b0;stroke-width:1.5;" x="309.282265" xlink:href="#m8da2ef7c9b" y="190.837016"/>
     <use style="fill:#4c72b0;stroke:#4c72b0;stroke-width:1.5;" x="308.641781" xlink:href="#m8da2ef7c9b" y="148.620603"/>
     <use style="fill:#4c72b0;stroke:#4c72b0;stroke-width:1.5;" x="302.899311" xlink:href="#m8da2ef7c9b" y="166.265394"/>
     <use style="fill:#4c72b0;stroke:#4c72b0;stroke-width:1.5;" x="316.837523" xlink:href="#m8da2ef7c9b" y="121.797154"/>
     <use style="fill:#4c72b0;stroke:#4c72b0;stroke-width:1.5;" x="323.19377" xlink:href="#m8da2ef7c9b" y="148.409305"/>
     <use style="fill:#4c72b0;stroke:#4c72b0;stroke-width:1.5;" x="293.510621" xlink:href="#m8da2ef7c9b" y="137.038902"/>
     <use style="fill:#4c72b0;stroke:#4c72b0;stroke-width:1.5;" x="276.266612" xlink:href="#m8da2ef7c9b" y="157.526752"/>
     <use style="fill:#4c72b0;stroke:#4c72b0;stroke-width:1.5;" x="336.222235" xlink:href="#m8da2ef7c9b" y="123.493011"/>
     <use style="fill:#4c72b0;stroke:#4c72b0;stroke-width:1.5;" x="344.197514" xlink:href="#m8da2ef7c9b" y="146.418373"/>
     <use style="fill:#4c72b0;stroke:#4c72b0;stroke-width:1.5;" x="278.424231" xlink:href="#m8da2ef7c9b" y="118.560787"/>
    </g>
   </g>
   <g id="LineCollection_1">
    <path clip-path="url(#pc6e07dbe3d)" d="M 201.890909 207.263537 
L 209.105455 207.685988 
L 216.32 207.936185 
L 223.534545 208.024975 
L 230.749091 207.957478 
L 237.963636 207.733372 
L 245.178182 207.346884 
L 256 206.500725 
L 263.214545 205.725987 
L 274.036364 204.265732 
L 284.858182 202.403953 
L 295.68 200.101094 
L 303.656824 198.1002 
L 310.109091 196.273784 
L 317.323636 193.990676 
L 325.829594 190.885654 
L 331.752727 188.430868 
L 338.079189 185.474745 
L 342.574545 183.119848 
L 347.810567 180.063836 
L 350.579768 178.2602 
L 355.532237 174.652927 
L 359.71797 171.045654 
L 363.221203 167.438382 
L 366.081458 163.831109 
L 367.825455 161.020612 
L 368.29783 160.223836 
L 369.208919 158.4202 
L 369.955943 156.616564 
L 370.547782 154.812927 
L 370.991139 153.009291 
L 371.290688 151.205654 
L 371.450566 149.402018 
L 371.432727 147.085343 
L 371.344678 145.794745 
L 371.077895 143.991109 
L 370.662389 142.187473 
L 370.091367 140.383836 
L 369.355851 138.5802 
L 367.825455 135.748194 
L 367.377817 134.972927 
L 366.162941 133.169291 
L 364.218182 130.785399 
L 363.151503 129.562018 
L 360.610909 127.085427 
L 359.370175 125.954745 
L 357.003636 124.050259 
L 353.396364 121.456013 
L 349.789091 119.17713 
L 346.181818 117.144861 
L 342.208046 115.132927 
L 338.257062 113.329291 
L 331.752727 110.706462 
L 324.538182 108.224752 
L 317.323636 106.106759 
L 310.109091 104.285977 
L 302.894545 102.724669 
L 295.68 101.396124 
L 284.858182 99.813441 
L 276.359683 98.9002 
L 270.429091 98.372433 
L 263.214545 97.907772 
L 256 97.61508 
L 248.785455 97.481906 
L 241.570909 97.501531 
L 234.356364 97.672576 
L 227.141818 97.998918 
L 219.927273 98.489921 
L 209.105455 99.507461 
L 199.780007 100.703836 
L 194.676364 101.443446 
L 187.461818 102.686195 
L 179.301684 104.311109 
L 173.032727 105.716086 
L 164.520773 107.918382 
L 158.344153 109.722018 
L 151.389091 111.982792 
L 142.96321 115.132927 
L 136.96 117.686106 
L 130.989773 120.543836 
L 126.138182 123.158398 
L 121.4815 125.954745 
L 116.255775 129.562018 
L 113.932737 131.365654 
L 109.842678 134.972927 
L 106.438712 138.5802 
L 103.688217 142.187473 
L 102.528405 143.991109 
L 101.544144 145.794745 
L 99.985903 149.402018 
L 99.420601 151.205654 
L 99.007063 153.009291 
L 98.740993 154.812927 
L 98.620064 156.616564 
L 98.643862 158.4202 
L 98.813877 160.223836 
L 99.133542 162.027473 
L 99.608301 163.831109 
L 100.245735 165.634745 
L 101.965415 169.242018 
L 103.073767 171.045654 
L 105.823347 174.652927 
L 108.101818 177.054718 
L 109.324316 178.2602 
L 111.709091 180.312877 
L 115.316364 183.059582 
L 116.175351 183.671109 
L 118.960093 185.474745 
L 122.530909 187.575355 
L 126.138182 189.484158 
L 129.745455 191.21417 
L 133.352727 192.790608 
L 140.567273 195.581606 
L 147.781818 197.943332 
L 154.996364 199.968408 
L 162.235177 201.707473 
L 169.425455 203.192661 
L 176.64 204.452128 
L 183.854545 205.481676 
L 191.069091 206.343352 
L 200.008001 207.118382 
L 201.890909 207.263537 
L 201.890909 207.263537 
" style="fill:none;stroke:#0d0887;stroke-width:1.5;"/>
   </g>
   <g id="LineCollection_2">
    <path clip-path="url(#pc6e07dbe3d)" d="M 201.890909 196.484933 
L 209.105455 197.06444 
L 216.32 197.427959 
L 223.534545 197.591585 
L 230.749091 197.564191 
L 237.963636 197.347952 
L 245.178182 196.938469 
L 252.656553 196.296564 
L 259.607273 195.539378 
L 267.006447 194.492927 
L 274.036364 193.314521 
L 281.250909 191.863178 
L 288.465455 190.156665 
L 295.68 188.16733 
L 302.894545 185.849228 
L 308.793218 183.671109 
L 313.716364 181.621236 
L 317.323636 179.959801 
L 320.930909 178.140355 
L 324.538182 176.13052 
L 328.145455 173.884798 
L 329.696276 172.849291 
L 332.150188 171.045654 
L 335.36 168.367415 
L 336.397321 167.438382 
L 338.967273 164.747869 
L 339.783848 163.831109 
L 341.186041 162.027473 
L 342.574545 159.86447 
L 343.405687 158.4202 
L 344.249021 156.616564 
L 344.902799 154.812927 
L 345.373906 153.009291 
L 345.666759 151.205654 
L 345.783403 149.402018 
L 345.723555 147.598382 
L 345.484598 145.794745 
L 345.061523 143.991109 
L 344.446819 142.187473 
L 343.630306 140.383836 
L 342.574545 138.544327 
L 341.394442 136.776564 
L 338.967273 133.916025 
L 338.274364 133.169291 
L 335.36 130.533674 
L 334.179145 129.562018 
L 331.700052 127.758382 
L 328.145455 125.489182 
L 324.538182 123.481509 
L 320.930909 121.70772 
L 317.323636 120.124482 
L 313.716364 118.703077 
L 308.665338 116.936564 
L 302.689762 115.132927 
L 295.589977 113.329291 
L 288.465455 111.829324 
L 281.250909 110.592146 
L 274.036364 109.623945 
L 266.821818 108.867264 
L 259.607273 108.341426 
L 252.392727 108.024118 
L 245.178182 107.899638 
L 237.963636 107.964094 
L 230.749091 108.212848 
L 223.534545 108.652575 
L 216.32 109.295521 
L 209.105455 110.133858 
L 201.890909 111.179883 
L 194.676364 112.439046 
L 187.461818 113.940516 
L 180.247273 115.699789 
L 173.032727 117.748108 
L 165.818182 120.135833 
L 160.004562 122.347473 
L 154.996364 124.500327 
L 151.389091 126.220862 
L 147.781818 128.110889 
L 144.174545 130.20699 
L 140.567273 132.56041 
L 139.684371 133.169291 
L 136.96 135.252661 
L 135.120168 136.776564 
L 133.193124 138.5802 
L 131.439121 140.383836 
L 129.745455 142.428493 
L 128.566873 143.991109 
L 127.415413 145.794745 
L 126.138182 148.363434 
L 125.67819 149.402018 
L 125.065532 151.205654 
L 124.638081 153.009291 
L 124.391957 154.812927 
L 124.325689 156.616564 
L 124.44018 158.4202 
L 124.738724 160.223836 
L 125.227084 162.027473 
L 126.138182 164.29125 
L 126.776503 165.634745 
L 127.841556 167.438382 
L 129.745455 169.968067 
L 130.641542 171.045654 
L 133.352727 173.728733 
L 134.377199 174.652927 
L 136.96 176.681816 
L 140.567273 179.135152 
L 144.174545 181.252346 
L 147.781818 183.111559 
L 151.389091 184.765577 
L 154.996364 186.249742 
L 158.603636 187.586932 
L 165.818182 189.903822 
L 173.032727 191.815754 
L 180.247273 193.391195 
L 187.461818 194.669141 
L 194.676364 195.701478 
L 201.890909 196.484933 
L 201.890909 196.484933 
" style="fill:none;stroke:#5c01a6;stroke-width:1.5;"/>
   </g>
   <g id="LineCollection_3">
    <path clip-path="url(#pc6e07dbe3d)" d="M 209.105455 189.414616 
L 216.32 189.907893 
L 223.534545 190.1549 
L 230.749091 190.168837 
L 237.963636 189.954651 
L 245.178182 189.509326 
L 252.392727 188.831968 
L 259.607273 187.920583 
L 266.821818 186.749606 
L 274.036364 185.301011 
L 281.250909 183.549242 
L 288.465455 181.447547 
L 295.68 178.922193 
L 299.287273 177.467445 
L 302.894545 175.859214 
L 306.501818 174.06834 
L 310.109091 172.052039 
L 313.716364 169.748147 
L 314.45889 169.242018 
L 317.323636 167.042286 
L 318.980086 165.634745 
L 320.930909 163.720348 
L 322.459226 162.027473 
L 323.835264 160.223836 
L 324.986372 158.4202 
L 325.925868 156.616564 
L 326.640577 154.812927 
L 327.137404 153.009291 
L 327.420324 151.205654 
L 327.490469 149.402018 
L 327.346155 147.598382 
L 326.98284 145.794745 
L 326.393028 143.991109 
L 325.566098 142.187473 
L 324.489426 140.383836 
L 323.1785 138.5802 
L 320.930909 136.143219 
L 319.704806 134.972927 
L 317.323636 133.037076 
L 313.716364 130.576733 
L 310.109091 128.507745 
L 306.501818 126.728773 
L 302.894545 125.174437 
L 299.287273 123.802707 
L 294.911502 122.347473 
L 288.465455 120.535989 
L 281.250909 118.905785 
L 274.036364 117.624442 
L 266.821818 116.655533 
L 259.607273 115.956015 
L 252.392727 115.517302 
L 245.178182 115.319045 
L 237.963636 115.349649 
L 230.749091 115.605596 
L 223.534545 116.091238 
L 215.387387 116.936564 
L 209.105455 117.776665 
L 201.890909 119.002572 
L 194.522076 120.543836 
L 187.375129 122.347473 
L 180.247273 124.500434 
L 176.079166 125.954745 
L 171.463517 127.758382 
L 167.367832 129.562018 
L 163.715751 131.365654 
L 160.451249 133.169291 
L 157.53458 134.972927 
L 154.939364 136.776564 
L 151.389091 139.661685 
L 150.575481 140.383836 
L 148.785548 142.187473 
L 147.242634 143.991109 
L 145.922243 145.794745 
L 144.840142 147.598382 
L 143.978064 149.402018 
L 143.318993 151.205654 
L 142.879431 153.009291 
L 142.65609 154.812927 
L 142.648548 156.616564 
L 142.85924 158.4202 
L 143.293517 160.223836 
L 144.174545 162.460221 
L 144.849313 163.831109 
L 145.98453 165.634745 
L 147.781818 167.86493 
L 149.059529 169.242018 
L 151.389091 171.331187 
L 153.323251 172.849291 
L 155.975747 174.652927 
L 159.030048 176.456564 
L 162.54603 178.2602 
L 166.612122 180.063836 
L 171.355068 181.867473 
L 176.64 183.577229 
L 180.247273 184.590704 
L 187.461818 186.297376 
L 194.676364 187.638402 
L 201.890909 188.667149 
L 209.105455 189.414616 
L 209.105455 189.414616 
" style="fill:none;stroke:#9c179e;stroke-width:1.5;"/>
   </g>
   <g id="LineCollection_4">
    <path clip-path="url(#pc6e07dbe3d)" d="M 223.534545 183.799544 
L 230.749091 183.865326 
L 237.963636 183.653693 
L 245.178182 183.171386 
L 252.392727 182.405268 
L 259.607273 181.34134 
L 266.821818 179.954442 
L 274.036364 178.204657 
L 279.926996 176.456564 
L 285.088357 174.652927 
L 289.510258 172.849291 
L 293.355365 171.045654 
L 296.712891 169.242018 
L 299.646403 167.438382 
L 302.894545 165.081227 
L 304.418907 163.831109 
L 306.501818 161.820028 
L 307.921353 160.223836 
L 309.24116 158.4202 
L 310.288831 156.616564 
L 311.079205 154.812927 
L 311.607781 153.009291 
L 311.877908 151.205654 
L 311.889491 149.402018 
L 311.638995 147.598382 
L 311.119361 145.794745 
L 310.109091 143.637422 
L 309.233126 142.187473 
L 307.836092 140.383836 
L 306.10367 138.5802 
L 302.894545 135.954969 
L 301.501709 134.972927 
L 298.530903 133.169291 
L 295.00905 131.365654 
L 290.806699 129.562018 
L 285.7326 127.758382 
L 281.250909 126.433334 
L 277.643636 125.519217 
L 270.429091 124.03755 
L 263.214545 122.949339 
L 256 122.203544 
L 248.785455 121.763273 
L 241.570909 121.612407 
L 234.356364 121.739293 
L 227.141818 122.142075 
L 219.927273 122.820851 
L 212.712727 123.791683 
L 205.498182 125.07577 
L 198.283636 126.710486 
L 191.069091 128.752325 
L 187.461818 129.952892 
L 183.669869 131.365654 
L 179.429869 133.169291 
L 175.73632 134.972927 
L 172.509172 136.776564 
L 169.425455 138.770444 
L 167.237366 140.383836 
L 165.117715 142.187473 
L 163.307034 143.991109 
L 161.789629 145.794745 
L 160.545962 147.598382 
L 159.574998 149.402018 
L 158.867633 151.205654 
L 158.415852 153.009291 
L 158.220152 154.812927 
L 158.28516 156.616564 
L 158.615167 158.4202 
L 159.211695 160.223836 
L 160.090685 162.027473 
L 161.268186 163.831109 
L 162.762222 165.634745 
L 164.59619 167.438382 
L 166.808284 169.242018 
L 169.439734 171.045654 
L 173.032727 173.091747 
L 176.64 174.816839 
L 180.698125 176.456564 
L 186.09939 178.2602 
L 191.069091 179.626915 
L 194.676364 180.466971 
L 201.890909 181.821111 
L 209.105455 182.80196 
L 216.32 183.450662 
L 223.534545 183.799544 
L 223.534545 183.799544 
" style="fill:none;stroke:#cb4679;stroke-width:1.5;"/>
   </g>
   <g id="LineCollection_5">
    <path clip-path="url(#pc6e07dbe3d)" d="M 212.712727 176.882731 
L 216.32 177.273995 
L 219.927273 177.568825 
L 223.534545 177.771177 
L 227.141818 177.884149 
L 230.749091 177.91002 
L 234.356364 177.850294 
L 237.963636 177.705711 
L 241.570909 177.476268 
L 245.178182 177.161212 
L 248.785455 176.759034 
L 251.014775 176.456564 
L 252.392727 176.264452 
L 256 175.671616 
L 259.607273 174.981674 
L 261.122056 174.652927 
L 263.214545 174.178657 
L 266.821818 173.25843 
L 268.267631 172.849291 
L 270.429091 172.201048 
L 273.911646 171.045654 
L 274.036364 171.001206 
L 277.643636 169.607743 
L 278.518941 169.242018 
L 281.250909 167.995069 
L 282.390257 167.438382 
L 284.858182 166.099381 
L 285.666782 165.634745 
L 288.441877 163.831109 
L 288.465455 163.813548 
L 290.761398 162.027473 
L 292.072727 160.817595 
L 292.695017 160.223836 
L 294.25638 158.4202 
L 295.479482 156.616564 
L 295.68 156.214304 
L 296.367108 154.812927 
L 296.932958 153.009291 
L 297.181054 151.205654 
L 297.109137 149.402018 
L 296.71064 147.598382 
L 295.974538 145.794745 
L 295.68 145.29999 
L 294.873362 143.991109 
L 293.386661 142.187473 
L 292.072727 140.926073 
L 291.477548 140.383836 
L 289.082693 138.5802 
L 288.465455 138.183618 
L 286.114325 136.776564 
L 284.858182 136.122219 
L 282.454822 134.972927 
L 281.250909 134.459724 
L 277.900825 133.169291 
L 277.643636 133.079158 
L 274.036364 131.936111 
L 271.986355 131.365654 
L 270.429091 130.962751 
L 266.821818 130.146541 
L 263.785933 129.562018 
L 263.214545 129.457695 
L 259.607273 128.897213 
L 256 128.442297 
L 252.392727 128.087386 
L 248.785455 127.827887 
L 247.300317 127.758382 
L 245.178182 127.661448 
L 241.570909 127.58352 
L 237.963636 127.591275 
L 234.356364 127.683633 
L 232.82839 127.758382 
L 230.749091 127.8614 
L 227.141818 128.125399 
L 223.534545 128.475746 
L 219.927273 128.914212 
L 216.32 129.443361 
L 215.624648 129.562018 
L 212.712727 130.075603 
L 209.105455 130.809248 
L 206.69384 131.365654 
L 205.498182 131.654853 
L 201.890909 132.628116 
L 200.081235 133.169291 
L 198.283636 133.741325 
L 194.7679 134.972927 
L 194.676364 135.007526 
L 191.069091 136.481065 
L 190.397666 136.776564 
L 187.461818 138.194821 
L 186.713683 138.5802 
L 183.854545 140.22447 
L 183.591921 140.383836 
L 180.962498 142.187473 
L 180.247273 142.756756 
L 178.757171 143.991109 
L 176.932964 145.794745 
L 176.64 146.149498 
L 175.474698 147.598382 
L 174.354114 149.402018 
L 173.558349 151.205654 
L 173.082712 153.009291 
L 173.032727 153.589163 
L 172.927838 154.812927 
L 173.032727 155.955311 
L 173.094556 156.616564 
L 173.594238 158.4202 
L 174.438726 160.223836 
L 175.645749 162.027473 
L 176.64 163.164478 
L 177.250191 163.831109 
L 179.298807 165.634745 
L 180.247273 166.331235 
L 181.854591 167.438382 
L 183.854545 168.615729 
L 185.00481 169.242018 
L 187.461818 170.416682 
L 188.906069 171.045654 
L 191.069091 171.891725 
L 193.801793 172.849291 
L 194.676364 173.129981 
L 198.283636 174.164475 
L 200.233327 174.652927 
L 201.890909 175.04137 
L 205.498182 175.773915 
L 209.105455 176.388561 
L 209.583324 176.456564 
L 212.712727 176.882731 
" style="fill:none;stroke:#ed7953;stroke-width:1.5;"/>
   </g>
   <g id="LineCollection_6">
    <path clip-path="url(#pc6e07dbe3d)" d="M 219.927273 171.118161 
L 223.534545 171.426939 
L 227.141818 171.616079 
L 230.749091 171.6894 
L 234.356364 171.649656 
L 237.963636 171.498577 
L 241.570909 171.236891 
L 243.425791 171.045654 
L 245.178182 170.854685 
L 248.785455 170.344841 
L 252.392727 169.715662 
L 254.675281 169.242018 
L 256 168.945746 
L 259.607273 168.010887 
L 261.545266 167.438382 
L 263.214545 166.896621 
L 266.676267 165.634745 
L 266.821818 165.575288 
L 270.429091 163.949823 
L 270.670563 163.831109 
L 273.867438 162.027473 
L 274.036364 161.915072 
L 276.40384 160.223836 
L 277.643636 159.137864 
L 278.416427 158.4202 
L 279.929045 156.616564 
L 281.008286 154.812927 
L 281.250909 154.138561 
L 281.6414 153.009291 
L 281.84991 151.205654 
L 281.63685 149.402018 
L 281.250909 148.320088 
L 280.978025 147.598382 
L 279.827548 145.794745 
L 278.174903 143.991109 
L 277.643636 143.544111 
L 275.88743 142.187473 
L 274.036364 141.037259 
L 272.869761 140.383836 
L 270.429091 139.23463 
L 268.854532 138.5802 
L 266.821818 137.845895 
L 263.384794 136.776564 
L 263.214545 136.729278 
L 259.607273 135.868681 
L 256 135.165727 
L 254.762802 134.972927 
L 252.392727 134.63307 
L 248.785455 134.242908 
L 245.178182 133.97735 
L 241.570909 133.83173 
L 237.963636 133.802505 
L 234.356364 133.8872 
L 230.749091 134.084373 
L 227.141818 134.393591 
L 223.534545 134.815423 
L 222.4691 134.972927 
L 219.927273 135.372732 
L 216.32 136.061262 
L 213.14658 136.776564 
L 212.712727 136.882498 
L 209.105455 137.892366 
L 206.939715 138.5802 
L 205.498182 139.086049 
L 202.184041 140.383836 
L 201.890909 140.513324 
L 198.440338 142.187473 
L 198.283636 142.275395 
L 195.459355 143.991109 
L 194.676364 144.558494 
L 193.079823 145.794745 
L 191.20412 147.598382 
L 191.069091 147.768433 
L 189.83599 149.402018 
L 188.899081 151.205654 
L 188.385072 153.009291 
L 188.297293 154.812927 
L 188.64493 156.616564 
L 189.443235 158.4202 
L 190.71388 160.223836 
L 191.069091 160.592697 
L 192.561473 162.027473 
L 194.676364 163.599138 
L 195.019479 163.831109 
L 198.282777 165.634745 
L 198.283636 165.635149 
L 201.890909 167.148384 
L 202.68391 167.438382 
L 205.498182 168.341685 
L 208.805484 169.242018 
L 209.105455 169.315521 
L 212.712727 170.063165 
L 216.32 170.662722 
L 219.31528 171.045654 
L 219.927273 171.118161 
" style="fill:none;stroke:#fdb42f;stroke-width:1.5;"/>
   </g>
   <g id="LineCollection_7">
    <path clip-path="url(#pc6e07dbe3d)" d="M 230.749091 163.997508 
L 234.356364 164.010429 
L 237.963636 163.844106 
L 238.100246 163.831109 
L 241.570909 163.45563 
L 245.178182 162.869154 
L 248.785455 162.088137 
L 249.010299 162.027473 
L 252.392727 160.953687 
L 254.317353 160.223836 
L 256 159.44027 
L 257.89287 158.4202 
L 259.607273 157.213163 
L 260.358267 156.616564 
L 261.921787 154.812927 
L 262.769887 153.009291 
L 262.884003 151.205654 
L 262.234446 149.402018 
L 260.779637 147.598382 
L 259.607273 146.672704 
L 258.296335 145.794745 
L 256 144.67165 
L 254.287512 143.991109 
L 252.392727 143.393935 
L 248.785455 142.517184 
L 246.885575 142.187473 
L 245.178182 141.938207 
L 241.570909 141.612087 
L 237.963636 141.482462 
L 234.356364 141.542175 
L 230.749091 141.785952 
L 227.33659 142.187473 
L 227.141818 142.213768 
L 223.534545 142.906784 
L 219.927273 143.801935 
L 219.304053 143.991109 
L 216.32 145.068876 
L 214.615095 145.794745 
L 212.712727 146.804901 
L 211.40805 147.598382 
L 209.191989 149.402018 
L 209.105455 149.509666 
L 207.884018 151.205654 
L 207.276289 153.009291 
L 207.37862 154.812927 
L 208.220868 156.616564 
L 209.105455 157.609516 
L 209.943468 158.4202 
L 212.712727 160.206367 
L 212.745371 160.223836 
L 216.32 161.665249 
L 217.460625 162.027473 
L 219.927273 162.661126 
L 223.534545 163.34548 
L 227.141818 163.795136 
L 227.705903 163.831109 
L 230.749091 163.997508 
" style="fill:none;stroke:#f0f921;stroke-width:1.5;"/>
   </g>
   <g id="patch_3">
    <path d="M 57.6 307.584 
L 57.6 41.472 
" style="fill:none;stroke:#cccccc;stroke-linecap:square;stroke-linejoin:miter;stroke-width:1.25;"/>
   </g>
   <g id="patch_4">
    <path d="M 414.72 307.584 
L 414.72 41.472 
" style="fill:none;stroke:#cccccc;stroke-linecap:square;stroke-linejoin:miter;stroke-width:1.25;"/>
   </g>
   <g id="patch_5">
    <path d="M 57.6 307.584 
L 414.72 307.584 
" style="fill:none;stroke:#cccccc;stroke-linecap:square;stroke-linejoin:miter;stroke-width:1.25;"/>
   </g>
   <g id="patch_6">
    <path d="M 57.6 41.472 
L 414.72 41.472 
" style="fill:none;stroke:#cccccc;stroke-linecap:square;stroke-linejoin:miter;stroke-width:1.25;"/>
   </g>
   <g id="text_19">
    <!-- Before split -->
    <defs>
     <path d="M 8.90625 69 
L 8.90625 0 
L 33.796875 0 
C 47.40625 0 57.296875 8.96875 57.296875 18.75 
C 57.296875 26.328125 50.796875 34 39.09375 36.203125 
C 52.09375 39.96875 54.703125 47.5 54.703125 51.765625 
C 54.703125 60.671875 44.90625 69 31.203125 69 
z
M 17 39 
L 17 63.421875 
L 28.5 63.421875 
C 38.796875 63.421875 46.90625 58.1875 46.90625 51.65625 
C 46.90625 45.71875 40.5 39 27.59375 39 
z
M 17 5.578125 
L 17 32.921875 
L 30.296875 32.921875 
C 41.09375 32.921875 49.40625 26.234375 49.40625 18.84375 
C 49.40625 12.0625 42.09375 5.578125 31 5.578125 
z
" id="CMSS17-66"/>
     <path d="M 39.09375 21.515625 
C 39.09375 24.84375 38.90625 31.296875 35.703125 36.640625 
C 32.203125 42.390625 26.5 44 22.203125 44 
C 11.796875 44 3 34.1875 3 21.484375 
C 3 9.09375 12.09375 -1 23.59375 -1 
C 28.09375 -1 33.59375 0.296875 38.59375 3.875 
C 38.59375 4.28125 38.40625 6.46875 38.296875 6.5625 
C 38.296875 6.765625 38 9.84375 38 10.25 
C 33.203125 6.359375 27.703125 5.078125 23.703125 5.078125 
C 17.296875 5.078125 10.40625 10.421875 10.09375 21.515625 
z
M 10.90625 27 
C 12.203125 32.5625 16.59375 37.828125 22.203125 37.828125 
C 23.703125 37.828125 30.703125 37.828125 32.5 27 
z
" id="CMSS17-101"/>
     <path d="M 16.796875 37 
L 26.90625 37 
L 26.90625 42.765625 
L 16.59375 42.765625 
L 16.59375 55.609375 
C 16.59375 62.71875 22 63.9375 25.09375 63.9375 
C 26.09375 63.9375 28.90625 63.9375 32.5 62.640625 
L 32.5 69.203125 
C 30.203125 69.703125 27.40625 70 25.203125 70 
C 15.90625 70 9.40625 62.390625 9.40625 52.484375 
L 9.40625 42.765625 
L 2.5 42.765625 
L 2.5 37 
L 9.40625 37 
L 9.40625 0 
L 16.796875 0 
z
" id="CMSS17-102"/>
     <path d="M 44.203125 21.1875 
C 44.203125 34 34.703125 44 23.5 44 
C 12 44 2.703125 33.703125 2.703125 21.1875 
C 2.703125 8.5 12.296875 -1 23.40625 -1 
C 34.796875 -1 44.203125 8.796875 44.203125 21.1875 
z
M 23.5 5.265625 
C 16.40625 5.265625 10.296875 11.078125 10.296875 22 
C 10.296875 33.609375 17.40625 37.921875 23.40625 37.921875 
C 29.90625 37.921875 36.59375 33.21875 36.59375 22 
C 36.59375 10.671875 30.09375 5.265625 23.5 5.265625 
z
" id="CMSS17-111"/>
     <path d="M 14.90625 21.296875 
C 14.90625 30.703125 21.796875 37 30.59375 37 
L 30.59375 43.578125 
C 24.203125 43.578125 18.203125 40.390625 14.59375 35.203125 
L 14.59375 43.09375 
L 7.5 43.09375 
L 7.5 0 
L 14.90625 0 
z
" id="CMSS17-114"/>
     <path d="M 32.203125 41.046875 
C 26.296875 43.859375 21.703125 43.859375 18.703125 43.859375 
C 11.59375 43.859375 3.09375 41.375 3.09375 31.296875 
C 3.09375 21.234375 14.09375 19.03125 17.09375 18.421875 
C 21.703125 17.53125 26.796875 16.53125 26.796875 11.5625 
C 26.796875 5.265625 19.59375 5.265625 18.296875 5.265625 
C 14.296875 5.265625 8.796875 6.359375 3.796875 9.96875 
L 2.59375 3.28125 
C 8.296875 0 13.796875 -1 18.40625 -1 
C 30.703125 -1 33.796875 6.5 33.796875 12.203125 
C 33.796875 17.09375 31 20.390625 29.09375 21.890625 
C 25.796875 24.5 24.59375 24.796875 16.40625 26.5 
C 15 26.703125 10.09375 27.796875 10.09375 32.28125 
C 10.09375 38 16.40625 38 17.796875 38 
C 24.296875 38 28.296875 35.984375 31 34.5 
z
" id="CMSS17-115"/>
     <path d="M 15.09375 5.203125 
C 18.40625 2.015625 22.90625 -0.078125 27.703125 -0.078125 
C 37 -0.078125 45 9.421875 45 22.0625 
C 45 33.734375 39 44 30.40625 44 
C 25.40625 44 19.40625 42.21875 14.90625 38.625 
L 14.90625 43.203125 
L 7.5 43.203125 
L 7.5 -19 
L 15.09375 -19 
z
M 15.09375 32.8125 
C 15.90625 34 19.296875 37.734375 24.796875 37.734375 
C 31.796875 37.734375 37.40625 30.625 37.40625 22.0625 
C 37.40625 12.296875 30.59375 6 23.90625 6 
C 21.90625 6 19.796875 6.484375 17.796875 8.171875 
C 15.09375 10.53125 15.09375 12 15.09375 13.390625 
z
" id="CMSS17-112"/>
     <path d="M 14.796875 69 
L 7.40625 69 
L 7.40625 0 
L 14.796875 0 
z
" id="CMSS17-108"/>
     <path d="M 15.296875 65.359375 
L 6.90625 65.359375 
L 6.90625 57 
L 15.296875 57 
z
M 14.796875 42.796875 
L 7.40625 42.796875 
L 7.40625 0 
L 14.796875 0 
z
" id="CMSS17-105"/>
     <path d="M 16.703125 37 
L 29.703125 37 
L 29.703125 42.765625 
L 16.703125 42.765625 
L 16.703125 55 
L 9.59375 55 
L 9.59375 42.765625 
L 1.703125 42.765625 
L 1.703125 37 
L 9.40625 37 
L 9.40625 11.703125 
C 9.40625 6 10.703125 -1 17.296875 -1 
C 22.296875 -1 26.90625 0.390625 31.296875 2.6875 
L 29.703125 8.5625 
C 27.296875 6.46875 24.40625 5.265625 21.296875 5.265625 
C 16.90625 5.265625 16.703125 10.875 16.703125 13.375 
z
" id="CMSS17-116"/>
    </defs>
    <g style="fill:#262626;" transform="translate(208.466959 35.472)scale(0.12 -0.12)">
     <use transform="scale(0.996264)" xlink:href="#CMSS17-66"/>
     <use transform="translate(62.33804 0)scale(0.996264)" xlink:href="#CMSS17-101"/>
     <use transform="translate(103.976862 0)scale(0.996264)" xlink:href="#CMSS17-102"/>
     <use transform="translate(132.603521 0)scale(0.996264)" xlink:href="#CMSS17-111"/>
     <use transform="translate(176.844691 0)scale(0.996264)" xlink:href="#CMSS17-114"/>
     <use transform="translate(208.754463 0)scale(0.996264)" xlink:href="#CMSS17-101"/>
     <use transform="translate(281.622398 0)scale(0.996264)" xlink:href="#CMSS17-115"/>
     <use transform="translate(317.53594 0)scale(0.996264)" xlink:href="#CMSS17-112"/>
     <use transform="translate(365.740883 0)scale(0.996264)" xlink:href="#CMSS17-108"/>
     <use transform="translate(387.921606 0)scale(0.996264)" xlink:href="#CMSS17-105"/>
     <use transform="translate(410.102329 0)scale(0.996264)" xlink:href="#CMSS17-116"/>
    </g>
   </g>
  </g>
 </g>
 <defs>
  <clipPath id="pc6e07dbe3d">
   <rect height="266.112" width="357.12" x="57.6" y="41.472"/>
  </clipPath>
 </defs>
</svg>
